<?xml version="1.0" encoding="UTF-8"?>
<svg width="172.58mm" height="210.87mm" version="1.1" viewBox="0 0 611.49453 747.17346" xmlns="http://www.w3.org/2000/svg">
 <defs>
  <clipPath id="c">
   <path d="m13162 1981.7c58.3-117.43 94.9-359.41 65.6-480.6-68.9-284.25-1058.5 8.96-1407.8 8.96-463.7 0-551-246.63-772 34.69-68.3 87-101.1 7.53-163.2-31.25-558.1 210.84-492.5-139-853.5-178.71-34.7-3.82-362.66 507.13-404.81 509.7-53.07 3.23 41.96-393.66-25.73-377.55-61.39 14.61-97.28-77.23-173.25-49.62-348.67 126.66-468.75 97.04-533.46 8.82-51.02-69.56-451.23 114.2-474.37-3.93-39.65 17.51-194.06 271.38-298.21 80.21-21.63-39.7-788.04-122.83-849.85-124.35-147.86-3.65-544.04-104.67-800.19-31.66-253.75 72.34 54.54 601.99-303.95 907.28 315.29-742.94-90.32-966.84-125.44-963.01-573.35 62.46-209 318.7-260.59 295.51-236-106.06-600.72-260.41-751.6-214.76-107.07 32.39-117.77 235.53 29.26 600.26 97.11 240.95 160.76 329.12 37.96 596.15-73.8 160.5 157.18 279.29 240.96 387.2 27.53 35.46 23.17 360.21 28.78 620.98 6.61 306.32 146.68 141.4 303.09 172.09 139.48 27.37 277.92-35.98 503.75-147.23-13.68 27.83-344.2 206.76-483.21 227.85-154.82 23.5-318.27 40.71-316.84 51.01 57.09 410.25-248.18-20.53 227.32 570.76 336.54 680.97-35.13 622.55-267.27 1378.4-99.91 325.29 230.47 436.36 125.33 514.75-474.34 288.42-707.35 796.21-65.4 887.45 264.96 37.65-206.72 980.14-63.34 1201.7 297.49 459.65-176.78 743.87-128.64 1148.5 21.97 184.62 255.04-42.77 457.55 75.54-561.3 6.06-356.23 107.48-487.27 565.16-77.11 269.3 126.39 460.5 28.26 1024-4.01 23.1-89.87 389.8-89.73 423.8 0.06 14.6-163.93 351.8-27.66 463.8 75.39 95.8 328.99-95.1 502.69-178.4 137.72-66.1 347.02-71 617.98-72.7 212.32-1.3 154.98 134.1 514.55 63.9 713.9-139.2 409.26-273.9 1110-19.1 279.68 101.7 356.89-26.2 493.11 10.3 60.63-179.7 86.33-11.6 206.11-366.6 7.25-21.4 7.92-6 19.25-25.1 51.16 83.3-91.41 366.7 14.87 401.9 26.98-21.4 924.25 56.3 1164.1 20.5 284.01-42.3 493.81-152.2 496.01-152.4 160.7-17.8 298.1 24.6 443.5 65 52.9 14.7-105.9-348.6-33-664.2 25.4-110.3-101.3-302.1-0.4-382.6-63.2 114.1 75.9 308.7 52.5 407.6-91.1 385.3 90.5 644.3 314.4 688.5 47.6 9.4 99.5-5.9 153.7-16.4 276.6-54 571.2 247.7 920.9 28.4 359.8-225.8 831.7 480.3 1165.2 182.1 197.6-176.7-65.9-383-124.1-869.4 10.1-237.6-173-1034.7-169.8-1069.7 17.7-198.42-134.8-158.4 12.6-538.61 199.7-514.76-306.7-472.13-31.2-1183.3 34.9-387.95 22.9-222.58 0-612.04-14.4-246.98-6.9-496.99 37.7-621.17 171.5-476.98 270.2-537.55 94.3-1023.2-3.5-9.44-255-309.15-343.2-529.34-16.4-40.85-443.6-144-401.7-147.09 138.9-10.22 289 100.32 422.4-145.02 280.2-515.18 389.6-398.24 196.4-896.25-14-36.16 105.3-1250.9 97.9-1522-13.7-508.68 229.7-313.57-97.9-718.12 370.4 242.33 207.3-223.21 230.6-267.35" clip-rule="evenodd"/>
  </clipPath>
  <radialGradient id="d" cx="0" cy="0" r="1" gradientTransform="matrix(6122.8 0 0 -6122.8 9129.9 6744.8)" gradientUnits="userSpaceOnUse">
   <stop stop-color="#fff" offset="0"/>
   <stop stop-color="#fbca8e" offset="1"/>
  </radialGradient>
 </defs>
 <g transform="translate(-62.11 -285.92)">
  <g transform="matrix(-.54618 0 0 .54618 878.37 279.8)">
   <g transform="scale(.10245)">
    <path d="m5667.7 6890.2c111.3 46.71 233.37 83.2 363.84 111.71-107.53-39.8-207.65-83.79-299.15-132.64-21.14 7.29-42.75 14.24-64.69 20.93zm619.91-349.71c90.23-23.25 183.57-54.89 279.8-94.38-80.13 15.55-154.48 28.09-223.83 37.67-17.77 19.24-36.5 38.13-55.97 56.71zm169.24-199.7c89.58-40.56 182.67-94.71 278.42-165.6-81.41 39.1-159.7 70.5-234.68 95.6-13.5 23.56-28.16 46.89-43.74 70zm133.84-272.85c112.54-81.77 209.36-173.76 302.25-254.7-97.2 81.24-193.21 148.12-286.88 202.67-4.61 17.33-9.75 34.67-15.37 52.03zm33.62-135.06c4.63-26.56 8.1-52.94 10.38-79.11 79.02-53.39 157.2-113.6 232.86-178.23-65.16 93.11-147.46 180.92-243.24 257.34zm13.55-171.07c128.12-131.23 212.33-283.7 254.32-422.54-81.68 126.79-167.47 241.71-260.53 335.36 3.59 28.5 5.68 57.59 6.21 87.18zm-22.9-176.79c-6.9-27.36-15.23-53.96-25.12-79.59 99.44-116.09 182.01-239.94 252.2-327.11-49.83 154.21-128.31 288.67-227.08 406.7zm-53.8-142.88c-10.46-20.16-22.03-39.49-34.53-58.04 90.65-109.02 166.4-249.7 251.75-368.28-29.1 118.68-110.75 277.58-217.22 426.32zm-107.07-144.9c51.73-145.51 94.73-300.41 135.27-425.52-63.78 116.71-129.31 248.78-194.31 376.23 20.97 15.01 40.66 31.47 59.04 49.29" fill="#008940" fill-rule="evenodd"/>
    <path d="m5986.5 5852.2c70.7 107.33 166.55 270.41 391.57 195.84-7.91 19.39-45.9 33.19-80.99 49.46-29.08 13.48-53.51 30.77-81.16 35.31-209.78 16.21-312.97-129.49-382.07-214.91 56.61-5.63 130.18-52.17 152.65-65.7" fill="#008940" fill-rule="evenodd"/>
    <path d="m6146.4 6033c78.56 32.23 166.49 36.67 231.65 15.07-7.91 19.39-45.9 33.19-80.99 49.46-29.08 13.48-53.51 30.77-81.16 35.31-96.78 10.06-204.02-12.53-300.22-118.15 97.76 56.41 185.59 54.14 230.72 18.31" fill="#006b30" fill-rule="evenodd"/>
    <path d="m6378.1 6048c100.63-103.95 273.11-661-91.75-977.57 167.15 236.42 178.11 849.09-85.57 1063 31.34 0.64 62.3-20.01 96.33-35.98 36.21-17.01 63.78-31.68 80.99-49.46" fill="#6cae31" fill-rule="evenodd"/>
    <path d="m5814.6 5954.3c51.11 110.04 117.11 276.44 357.74 218.84-11.6 18.46-52.46 29.37-90.85 42.89-31.82 11.21-59.66 26.48-88.36 29.03-214.36 1.46-291.02-148.42-344.62-236.89 58.08-1.62 140.91-42.15 166.09-53.87" fill="#008940" fill-rule="evenodd"/>
    <path d="m5941.8 6142.4c73.1 36.99 160.84 47.38 230.52 30.7-11.6 18.46-52.46 29.37-90.85 42.89-31.82 11.21-59.66 26.48-88.36 29.03-99.38 3.2-203.17-26.32-280.28-136.43 87.89 62.01 176.8 65.82 228.97 33.81" fill="#006b30" fill-rule="evenodd"/>
    <path d="m6172.3 6173.1c48.53-90.79 249.5-471.85-58.73-807.15 124.09 243.17 55.64 749.83-135.89 878.69 31.44 2.78 66.51-15.33 103.77-28.65 39.66-14.17 80.88-24.23 90.85-42.89" fill="#6cae31" fill-rule="evenodd"/>
    <path d="m4669.3 6641c-44.24 53.39-100.58 83.56-174.33 78.3 21.81 17.82 65.73 22.13 109 29.74 35.85 6.28 70.54 17.69 98.28 15.17 89.1-17.08 181.9-103.4 218-218.94-55.72 30.42-175.06 93.16-250.95 95.73" fill="#006b30" fill-rule="evenodd"/>
    <path d="m4712.8 6563.9c-107.84-90.22-211.56-292.01-228.32-446.9 76.32 203.35 193.31 384.01 466.67 490.56-28.99 8.54-75.4-5-120.78-12.95-48.3-8.45-95.4-12.16-117.57-30.71" fill="#6cae31" fill-rule="evenodd"/>
    <path d="m5638.3 6042.5c25.74 128.65 52.84 321.15 319.73 302.74-16.85 17.89-62.44 22.23-106.13 29.88-36.19 6.33-69.25 17.78-99.99 15.29-225.12-37.65-267.58-214.17-301.39-319.9 61.31 8.88 158.42-19.92 187.78-28.01" fill="#008940" fill-rule="evenodd"/>
    <path d="m5724 6269.7c67.28 53.48 156.65 80.81 233.95 75.47-16.85 17.89-62.44 22.23-106.13 29.88-36.19 6.33-69.25 17.78-99.99 15.29-105.01-14.71-206.36-65.71-259.36-199.21 76.48 83.31 168.73 103.71 231.53 78.57" fill="#006b30" fill-rule="evenodd"/>
    <path d="m5958 6345.2c73.85-89.55 239.94-428.7 1.61-848.65 68.57 286.36 9.64 785.93-223.79 890.59 32.27 8.77 73.61-4.46 116.05-12.06 45.18-8.11 90.94-11.47 106.13-29.88" fill="#6cae31" fill-rule="evenodd"/>
    <path d="m5420 6072.2c25.74 128.66 17.98 427.29 284.87 408.88-16.84 17.89-62.43 22.24-106.12 29.88-36.2 6.33-69.26 17.78-99.99 15.29-225.13-37.65-265.92-298.43-259.94-444.73 61.31 8.87 151.81-1.22 181.18-9.32" fill="#008940" fill-rule="evenodd"/>
    <path d="m5509.2 6400.6c50.63 68.17 118.39 85.79 195.68 80.45-16.84 17.89-62.43 22.24-106.12 29.88-36.2 6.33-69.26 17.78-99.99 15.29-105.01-14.71-171.41-67.6-224.4-201.1 76.47 83.32 172.04 100.64 234.83 75.48" fill="#006b30" fill-rule="evenodd"/>
    <path d="m5704.9 6481.1c73.85-89.55 239.95-428.7 1.61-848.65 68.58 286.37 9.65 785.93-223.78 890.59 32.26 8.77 73.61-4.44 116.05-12.06 45.18-8.1 90.94-11.47 106.12-29.88" fill="#6cae31" fill-rule="evenodd"/>
    <path d="m4188.8 1067.7c57.57 6.56 103.86-19.37 103.39-58.02-0.47-38.63-48.31-75.298-106.93-81.977-58.62-6.684-104.97 19.242-103.46 58.007 1.52 38.76 49.43 75.44 107 81.99" fill="#893115" fill-rule="evenodd"/>
    <path d="m4351.4 930.93c-81.93-12.727-176.22 52.672-110.4 165.85 21.83 15.27 47.74 24.61 75.58 32.2 0.24-5.37 0.5-10.26 0.73-15.64l23.85 17.46c27.11 2.11 52.7 1.59 77.81 0.02 140.42-68.04 28.44-184.97-67.57-199.89" fill="#b3421c" fill-rule="evenodd"/>
    <path d="m12836 971.99c-2.9-15.347 7.2-30.129 22.5-33.027 15.4-2.898 30.2 7.207 33.1 22.551l91.3 486.61c2.9 15.34-7.2 30.13-22.5 33.02-15.4 2.9-30.2-7.2-33-22.55l-91.4-486.6" fill="#a04637"/>
    <path d="m13464 6586.1c14.8-4.84 22.9-20.81 18.1-35.66s-20.8-22.96-35.7-18.12l-470.6 153.84c-14.8 4.84-22.9 20.8-18.1 35.66 4.9 14.84 20.8 22.94 35.7 18.1l470.6-153.82" fill="#a04637"/>
    <path d="m12840 12535c-2.9 15.3 7.2 30.1 22.6 33 15.3 2.9 30.1-7.2 33-22.5l91.4-486.6c2.9-15.4-7.2-30.2-22.6-33.1-15.3-2.9-30.1 7.2-33 22.6l-91.4 486.6" fill="#a04637"/>
    <path d="m4781.7 6594.3c-14.86-4.86-22.96-20.81-18.12-35.66 4.83-14.85 20.8-22.96 35.65-18.12l470.6 153.83c14.85 4.84 22.97 20.8 18.12 35.65-4.83 14.85-20.81 22.96-35.65 18.12l-470.6-153.82" fill="#a04637"/>
    <path d="m5410.7 980.18c2.9-15.344-7.2-30.129-22.55-33.028-15.34-2.894-30.13 7.207-33.03 22.555l-91.36 486.6c-2.9 15.35 7.2 30.14 22.56 33.03 15.34 2.9 30.13-7.21 33.02-22.55l91.36-486.61" fill="#a04637"/>
    <path d="m5406.1 12543c2.9 15.3-7.2 30.1-22.55 33-15.34 2.9-30.13-7.2-33.02-22.5l-91.37-486.6c-2.89-15.4 7.21-30.2 22.55-33.1 15.35-2.9 30.14 7.2 33.03 22.6l91.36 486.6" fill="#a04637"/>
    <path d="m4967 11820c-61.78 124.4-20.53 215.9 10.58 344.2 72.97 301.1 523.08-200.3 893.03-200.3 491.07 0 1054 348.6 1288.1 50.7 72.38-92.1 107.07-8 172.88 33.1 784.62-296.4 338.05 323.5 1309.9-29.6 369.27-134.1 327.23 117.5 634.05 76.5 166.31-22.2 546.82-88.6 571.35 36.5 41.98-18.5 205.52-287.4 315.82-84.9 22.9 42 928.6 8.2 994 9.8 208.1 5.1 875.2 118.5 1044.4 45 40.6-17.6 385.2 94.9 460.3 114.3 234.1 60.5 675.1 221.5 724.9-221.7 51.9-460.8-384-484.2-113.9-834.9 115.2-149.5-52.6-278.8-141.3-393.1-44.2-56.8-21.5-816.2-37.7-979.31-43.3-436.37 412.9-75.2-90.7-701.43-106.4-462.69-112.9-562.39 133-1362.9 105.8-344.51 123.1-302.83-23.5-499.73 108.5-215.45 278.7-917.76-190-1453.9-182.1-208.22 369-569.52 217.1-804.14-155.7-240.5-77.5-1296 167.7-1894.9 112.8-275.35-133.8-487.75-29.9-1084.5 4.3-24.43 34.7-482.57 34.6-518.56-0.1-15.44-15.6-261.73-27.5-265.95-107.9 213.51-705.9 98.53-1069.7 110.39-224.7 7.32-164.1-141.94-544.9-67.66-756.1 147.48-433.5 290.11-1175.6 20.25-296.2-107.72-378 27.71-522.24-10.87-3.12 9.24-289.59 512.15-301.97 533.13-54.19-88.29 160.1-506.71 47.55-543.99-28.59 22.66-978.87-59.6-1232.9-21.74-300.78 44.84-522.98 161.24-525.34 161.5-337.42 37.38-575.85-183.64-985.68-103.72-292.94 57.14-604.9-262.3-975.34-30.12-0.91 0.57-520.57 11.37-525.35 11.37 22.19 269-95.38-54.64-147.75 90.18-389.45-259.61-537.09-132.48-429.47 626.41-10.75 251.65 183.17 1095.8 179.85 1132.9-18.82 210.12 142.78 167.72-13.42 570.41-211.44 545.18 708.31 580.81 416.48 1334-36.9 410.86-436.15 157.38-383.44 567.41 52.98 412.22 120.32 192.42 124.87 784.98 0.9 116.33-251.8 385.88-289.07 624.02-38.18 244.01 140.79 455.96 288.76 513.42 14.87 5.77 74.53 350.41-81.48 660.27-163.53 324.77-134.83 652.46-49.28 978.04 10.41 39.63-111.48 1324.8-103.72 1612 14.54 538.7-202.42 304.5 103.72 760.5 17.34 25.9-97.19 260-121.79 306.7" fill="#f0b066" fill-rule="evenodd"/>
    <g clip-path="url(#c)">
     <path d="m13162 1981.7c58.3-117.43 94.9-359.41 65.6-480.6-68.9-284.25-1058.5 8.96-1407.8 8.96-463.7 0-551-246.63-772 34.69-68.3 87-101.1 7.53-163.2-31.25-558.1 210.84-492.5-139-853.5-178.71-34.7-3.82-362.66 507.13-404.81 509.7-53.07 3.23 41.96-393.66-25.73-377.55-61.39 14.61-97.28-77.23-173.25-49.62-348.67 126.66-468.75 97.04-533.46 8.82-51.02-69.56-451.23 114.2-474.37-3.93-39.65 17.51-194.06 271.38-298.21 80.21-21.63-39.7-788.04-122.83-849.85-124.35-147.86-3.65-544.04-104.67-800.19-31.66-253.75 72.34 54.54 601.99-303.95 907.28 315.29-742.94-90.32-966.84-125.44-963.01-573.35 62.46-209 318.7-260.59 295.51-236-106.06-600.72-260.41-751.6-214.76-107.07 32.39-117.77 235.53 29.26 600.26 97.11 240.95 160.76 329.12 37.96 596.15-73.8 160.5 157.18 279.29 240.96 387.2 27.53 35.46 23.17 360.21 28.78 620.98 6.61 306.32 146.68 141.4 303.09 172.09 139.48 27.37 277.92-35.98 503.75-147.23-13.68 27.83-344.2 206.76-483.21 227.85-154.82 23.5-318.27 40.71-316.84 51.01 57.09 410.25-248.18-20.53 227.32 570.76 336.54 680.97-35.13 622.55-267.27 1378.4-99.91 325.29 230.47 436.36 125.33 514.75-474.34 288.42-707.35 796.21-65.4 887.45 264.96 37.65-206.72 980.14-63.34 1201.7 297.49 459.65-176.78 743.87-128.64 1148.5 21.97 184.62 255.04-42.77 457.55 75.54-561.3 6.06-356.23 107.48-487.27 565.16-77.11 269.3 126.39 460.5 28.26 1024-4.01 23.1-89.87 389.8-89.73 423.8 0.06 14.6-163.93 351.8-27.66 463.8 75.39 95.8 328.99-95.1 502.69-178.4 137.72-66.1 347.02-71 617.98-72.7 212.32-1.3 154.98 134.1 514.55 63.9 713.9-139.2 409.26-273.9 1110-19.1 279.68 101.7 356.89-26.2 493.11 10.3 60.63-179.7 86.33-11.6 206.11-366.6 7.25-21.4 7.92-6 19.25-25.1 51.16 83.3-91.41 366.7 14.87 401.9 26.98-21.4 924.25 56.3 1164.1 20.5 284.01-42.3 493.81-152.2 496.01-152.4 160.7-17.8 298.1 24.6 443.5 65 52.9 14.7-105.9-348.6-33-664.2 25.4-110.3-101.3-302.1-0.4-382.6-63.2 114.1 75.9 308.7 52.5 407.6-91.1 385.3 90.5 644.3 314.4 688.5 47.6 9.4 99.5-5.9 153.7-16.4 276.6-54 571.2 247.7 920.9 28.4 359.8-225.8 831.7 480.3 1165.2 182.1 197.6-176.7-65.9-383-124.1-869.4 10.1-237.6-173-1034.7-169.8-1069.7 17.7-198.42-134.8-158.4 12.6-538.61 199.7-514.76-306.7-472.13-31.2-1183.3 34.9-387.95 22.9-222.58 0-612.04-14.4-246.98-6.9-496.99 37.7-621.17 171.5-476.98 270.2-537.55 94.3-1023.2-3.5-9.44-255-309.15-343.2-529.34-16.4-40.85-443.6-144-401.7-147.09 138.9-10.22 289 100.32 422.4-145.02 280.2-515.18 389.6-398.24 196.4-896.25-14-36.16 105.3-1250.9 97.9-1522-13.7-508.68 229.7-313.57-97.9-718.12 370.4 242.33 207.3-223.21 230.6-267.35" fill="url(#d)"/>
    </g>
    <path d="m5185.2 11907c26.11 0 47.41 21.3 47.41 47.4s-21.3 47.4-47.41 47.4-47.4-21.3-47.4-47.4 21.29-47.4 47.4-47.4" fill="#fde6c4" fill-rule="evenodd"/>
    <path d="m5177.8 11907c23.44 0 42.56 19.1 42.56 42.5 0 23.5-19.12 42.6-42.56 42.6-23.45 0-42.57-19.1-42.57-42.6 0-23.4 19.12-42.5 42.57-42.5" fill="#76392e" fill-rule="evenodd"/>
    <path d="m4719.8 11735c-13.71-7.5-18.78-24.6-11.3-38.4 7.46-13.7 24.64-18.7 38.35-11.3l434.66 237.1c13.71 7.5 18.78 24.7 11.31 38.4s-24.65 18.8-38.37 11.3l-434.65-237.1" fill="#a04637"/>
    <path d="m4422.4 9004.9c148.64 8.71 331.15 17.83 447.62 0 78.63-12.03 6.64-168.79-0.01-252.74-107.53-1359.2-94.85-2676 0-3963.7 5.44-73.7 69.4-214.66 0.01-221.78-126.7-13-303.35-11.97-447.62 0-67.39 5.6-4.52 143.55 0 215.08 82.39 1303.1 103.16 2618.1 0 3957-6.82 88.42-83.53 261.26 0 266.15" fill="#fbca8e" fill-rule="evenodd"/>
    <path d="m4398.4 4580c-23.83 37.15 20.18 142.38 23.94 201.81 82.39 1303.1 103.16 2618.1 0 3957-5.68 73.72-59.92 206.09-29.42 250.92 101.67-529.62 166.39-1327.2 166.39-2219.3 0-876.03-62.4-1660.9-160.91-2190.4" fill="#f0b066" fill-rule="evenodd"/>
    <path d="m4422.4 9004.9c148.64 8.71 331.15 17.83 447.62 0 78.63-12.03 6.64-168.79-0.01-252.74-107.53-1359.2-94.85-2676 0-3963.7 5.44-73.7 69.4-214.66 0.01-221.78-126.7-13-303.35-11.97-447.62 0-39.91 3.32-34.14 53.02-21.86 107.87 64.51-6.79 136.27-31.18 158.83-35.35 47.62-8.83 214.47-0.41 164.98 257.15-75.69 393.82-90.63 1456.6-89.09 1902.4 2.23 640.17 103.63 2011.6 94.87 2013.7-28.8 118.76-334.02 142.33-298.95-62.47-31.12 50.6-24.58 72.59-33.29 108.31-17.09 73.44-28.22 143.45 24.51 146.54" fill="#f0b066" fill-rule="evenodd"/>
    <path d="m4422.4 9004.9c148.64 8.71 331.15 17.83 447.62 0 78.63-12.03 6.64-168.79-0.01-252.74-107.53-1359.2-94.85-2676 0-3963.7 5.44-73.7 69.4-214.66 0.01-221.78-126.7-13-303.35-11.97-447.62 0-41.64 3.46-33.55 57.45-20.22 115.08-2.03-110.68 140.71-58.45 163.52-62.68 47.63-8.84 294.4-79.5 215.56 243.73-94.89 389.13-84.3 1503.5-82.75 1949.4 2.23 640.18 98.13 1982.4 88.54 2080.8-10.13 104.01-111.28 69.67-200.71 62.66-99.3-7.79-167.84 20.35-188.51-97.06-17.05 73.36-28.1 143.22 24.57 146.3" fill="#cd7f4b" fill-rule="evenodd"/>
    <path d="m4488.8 8751.5c14.39 124.14 110.35 96.99 123.55 79.47 30.24-40.11-49.99-88.51-55.03-176.46-11.94-207.85-0.32-516.57 9.13-968.17-31.84 195.43-95.61 910.11-77.65 1065.2" fill="#fff" fill-rule="evenodd"/>
    <path d="m4494.6 4745.4c11.68-100.83 89.61-78.77 100.33-64.55 24.57 32.59-40.59 71.89-44.69 143.31-9.69 168.79-0.25 419.52 7.42 786.3-25.86-158.72-77.65-739.14-63.06-865.06" fill="#fff" fill-rule="evenodd"/>
    <path d="m4416 13452c148.65 8.7 331.16 17.8 447.62 0 78.64-12.1 6.64-168.8 0-252.8-107.53-1359.2-94.86-2675.9 0-3963.6 5.43-73.7 69.39-214.67 0-221.79-126.69-13-303.33-11.97-447.62 0-67.4 5.6-4.52 143.55 0 215.08 82.4 1303.1 103.16 2618 0 3956.9-6.81 88.4-83.52 261.3 0 266.2" fill="#fbca8e" fill-rule="evenodd"/>
    <path d="m4392.1 9026.6c-23.84 37.14 20.18 142.39 23.93 201.81 82.4 1303.1 103.16 2618 0 3956.9-5.68 73.7-59.92 206.1-29.41 250.9 101.66-529.6 166.39-1327.1 166.39-2219.3 0-876-62.4-1660.8-160.91-2190.3" fill="#f0b066" fill-rule="evenodd"/>
    <path d="m4416 13452c148.65 8.7 331.16 17.8 447.62 0 78.64-12.1 6.64-168.8 0-252.8-107.53-1359.2-94.86-2675.9 0-3963.6 5.43-73.7 69.39-214.67 0-221.79-126.69-13-303.33-11.97-447.62 0-39.9 3.32-34.14 53.03-21.86 107.88 64.51-6.79 136.28-31.19 158.84-35.37 47.62-8.82 214.47-0.41 164.97 257.16-75.69 393.82-90.63 1456.5-89.08 1902.4 2.23 640.1 103.63 2011.6 94.87 2013.7-28.8 118.7-334.02 142.3-298.96-62.5-31.11 50.6-24.57 72.6-33.29 108.3-17.08 73.5-28.21 143.5 24.51 146.6" fill="#f0b066" fill-rule="evenodd"/>
    <path d="m4416 13452c148.65 8.7 331.16 17.8 447.62 0 78.64-12.1 6.64-168.8 0-252.8-107.53-1359.2-94.86-2675.9 0-3963.6 5.43-73.7 69.39-214.67 0-221.79-126.69-13-303.33-11.97-447.62 0-41.64 3.46-33.55 57.45-20.21 115.08-2.03-110.67 140.71-58.46 163.51-62.68 47.64-8.83 294.4-79.49 215.57 243.74-94.9 389.12-84.31 1503.6-82.75 1949.4 2.23 640.1 98.13 1982.4 88.54 2080.8-10.14 104-111.29 69.6-200.71 62.6-99.3-7.8-167.84 20.4-188.51-97-17.06 73.3-28.1 143.2 24.56 146.3" fill="#cd7f4b" fill-rule="evenodd"/>
    <path d="m4482.5 13198c12.68 124.3 110.34 96.9 123.54 79.4 30.25-40.1-34.04-7.2-65.33-88.9-14.51-37.8-23.5-130.2-32.08-360.3-31.84 195.5-33.79 294.5-26.13 369.8" fill="#fff" fill-rule="evenodd"/>
    <path d="m4488.3 9191.9c11.68-100.81 89.61-78.75 100.33-64.54 24.56 32.59-40.59 71.89-44.69 143.31-9.7 168.8-0.26 419.53 7.41 786.25-25.85-158.68-77.64-739.09-63.05-865.02" fill="#fff" fill-rule="evenodd"/>
    <path d="m4796.3 11912c-2.68-102.5-4.71-204.7-6.13-306.8-10.1 4-23.26 8.4-42.9 10.8-61.56 7.6-142.71 28.7-202.85 8.5-21.74-2.1-41.95-9.5-60.25-18.2-1.09 97.5-2.73 195.2-4.93 293 46.54-22.4 126.21-50.1 151.01-49.1 109.31 4.7 137.66 45.3 166.05 61.8" fill="#cd7f4b" fill-rule="evenodd"/>
    <path d="m4841.5 12895c-9.51-151.4-25.7-449.6-32.34-599.9-28.46 63.9-144.7 117.5-171.24 113-64.08-10.8-115.89-149.5-169.6-143.8-6.1 148.8-20.88 450.4-29.85 599.7 39.75-71.1 138.81-111 195.85-126.6 59.23-16.2 150.55 113.9 207.18 157.6" fill="#cd7f4b" fill-rule="evenodd"/>
    <path d="m4422.4 4565.1c148.64 8.71 331.15 17.84 447.62 0 78.63-12.04 6.64-168.79-0.01-252.74-107.53-1359.2-94.85-2676 0-3963.7 5.44-73.711 69.4-214.66 0.01-221.78-126.7-13-303.35-11.973-447.62 0-67.39 5.593-4.52 143.55 0 215.08 82.39 1303.1 103.16 2618.1 0 3956.9-6.82 88.42-83.53 261.26 0 266.15" fill="#fbca8e" fill-rule="evenodd"/>
    <path d="m4398.4 140.2c-23.83 37.145 20.18 142.38 23.94 201.81 82.39 1303.1 103.16 2618.1 0 3956.9-5.68 73.72-59.92 206.09-29.42 250.92 101.67-529.61 166.39-1327.2 166.39-2219.3 0-876.02-62.4-1660.8-160.91-2190.3" fill="#f0b066" fill-rule="evenodd"/>
    <path d="m4422.4 4565.1c148.64 8.71 331.15 17.84 447.62 0 78.63-12.04 6.64-168.79-0.01-252.74-107.53-1359.2-94.85-2676 0-3963.7 5.44-73.711 69.4-214.66 0.01-221.78-126.7-13-303.35-11.973-447.62 0-39.91 3.308-34.14 53.023-21.86 107.87 64.51-6.789 136.27-31.18 158.83-35.352 47.62-8.828 214.47-0.41 164.98 257.16-75.69 393.81-90.63 1456.6-89.09 1902.4 2.23 640.18 103.63 2011.6 94.87 2013.7-28.8 118.76-334.02 142.33-298.95-62.47-31.12 50.61-24.58 72.58-33.29 108.31-17.09 73.44-28.22 143.45 24.51 146.54" fill="#f0b066" fill-rule="evenodd"/>
    <path d="m4422.4 4565.1c148.64 8.71 331.15 17.84 447.62 0 78.63-12.04 6.64-168.79-0.01-252.74-107.53-1359.2-94.85-2676 0-3963.7 5.44-73.711 69.4-214.66 0.01-221.78-126.7-13-303.35-11.973-447.62 0-41.64 3.449-33.55 57.457-20.22 115.08-2.03-110.67 140.71-58.461 163.52-62.684 47.63-8.836 294.4-79.492 215.56 243.74-94.89 389.11-84.3 1503.5-82.75 1949.4 2.23 640.17 98.13 1982.4 88.54 2080.8-10.13 104.02-111.28 69.68-200.71 62.66-99.3-7.79-167.84 20.35-188.51-97.06-17.05 73.37-28.1 143.22 24.57 146.3" fill="#cd7f4b" fill-rule="evenodd"/>
    <path d="m4488.8 4311.7c14.39 124.13 110.35 96.99 123.55 79.47 30.24-40.12-49.99-88.51-55.03-176.46-11.94-207.85-0.32-516.57 9.13-968.18-31.84 195.44-95.61 910.11-77.65 1065.2" fill="#fff" fill-rule="evenodd"/>
    <path d="m4494.6 305.53c11.68-100.82 89.61-78.773 100.34-64.543 24.55 32.582-34.97 38.883-54.5 107.37-21.13 74.063-19.86 199-8.92 387.71-25.86-158.72-51.51-304.61-36.92-430.54" fill="#fff" fill-rule="evenodd"/>
    <path d="m4820.8 1178c6.55-146.78 14.25-293.16 23.04-439.15-1.04-129.45-96.48-105.74-100.4-80.418-20.89 134.67-207.61 124.04-298.78 65.957 8.08 151.29 15.26 302.74 21.42 454.39 18.3-22.51 32.87-33.2 102.43-65.69 36.75-17.16 143.22 8.22 138.57 137.87-3.65 101.75 20.57 49.03 113.72-72.96" fill="#cd7f4b" fill-rule="evenodd"/>
    <path d="m7307.8 12738c-7.12-118.1-14.6-263 0-355.5 9.86-62.4 138.18-5.2 206.91 0 1112.7 85.4 2190.7 75.4 3244.9 0 60.3-4.3 175.7-55.1 181.5 0 10.7 100.6 9.8 240.9 0 355.5-4.5 53.5-117.5 3.6-176 0-1066.8-65.5-2143.3-81.9-3239.4 0-72.39 5.4-213.88 66.3-217.89 0" fill="#fbca8e" fill-rule="evenodd"/>
    <path d="m10930 12757c-30.4 18.9-116.6-16.1-165.2-19-1066.8-65.5-2143.3-81.9-3239.4 0-60.35 4.5-168.72 47.5-205.42 23.3 433.58-80.7 1086.5-132.1 1816.9-132.1 717.17 0 1359.7 49.6 1793.2 127.8" fill="#f0b066" fill-rule="evenodd"/>
    <path d="m7307.8 12738c-7.12-118.1-14.6-263 0-355.5 9.86-62.4 138.18-5.2 206.91 0 1112.7 85.4 2190.7 75.4 3244.9 0 60.3-4.3 175.7-55.1 181.5 0 10.7 100.6 9.8 240.9 0 355.5-2.7 31.7-43.4 27.1-88.3 17.3 5.6-51.2 25.5-108.2 29-126.1 7.2-37.8 0.3-170.3-210.6-131-322.4 60.1-1192.4 72-1557.4 70.7-524.08-1.7-1646.8-82.2-1648.6-75.3-97.21 22.9-116.51 265.2 51.15 237.4-41.43 24.7-59.43 19.5-88.67 26.4-60.13 13.6-117.44 22.4-119.97-19.4" fill="#f0b066" fill-rule="evenodd"/>
    <path d="m7307.8 12738c-7.12-118.1-14.6-263 0-355.5 9.86-62.4 138.18-5.2 206.91 0 1112.7 85.4 2190.7 75.4 3244.9 0 60.3-4.3 175.7-55.1 181.5 0 10.7 100.6 9.8 240.9 0 355.5-2.8 33-47 26.6-94.2 16 90.6 1.6 47.9-111.7 51.3-129.8 7.3-37.8 65.1-233.8-199.5-171.2-318.6 75.4-1230.9 67-1595.8 65.7-524.08-1.7-1622.9-77.9-1703.5-70.3-85.15 8.1-57.03 88.4-51.29 159.4 6.37 78.8-16.67 133.3 79.46 149.7-60.06 13.5-117.25 22.3-119.78-19.5" fill="#cd7f4b" fill-rule="evenodd"/>
    <path d="m7515.3 12685c-101.62-11.4-79.41-87.6-65.06-98.1 32.84-24 72.46 39.7 144.45 43.7 170.16 9.4 422.9 0.2 792.61-7.3-160 25.3-745.07 75.9-872 61.7" fill="#fff" fill-rule="evenodd"/>
    <path d="m10795 12680c82.6-9.3 64.5-71.1 52.9-79.6-26.7-19.6-58.9 32.2-117.4 35.4-138.2 7.7-343.4 0.2-643.6-5.9 129.9 20.6 605 61.7 708.1 50.1" fill="#fff" fill-rule="evenodd"/>
    <path d="m3667.6 12743c-7.13-118-14.6-263 0-355.4 9.85-62.5 138.18-5.3 206.9 0 1112.7 85.3 2190.7 75.3 3244.9 0 60.34-4.3 175.74-55.1 181.56 0 10.65 100.6 9.81 240.8 0 355.4-4.58 53.5-117.51 3.6-176.07 0-1066.8-65.4-2143.3-81.9-3239.4 0-72.39 5.4-213.89 66.3-217.89 0" fill="#fbca8e" fill-rule="evenodd"/>
    <path d="m7290.1 12762c-30.41 18.9-116.58-16-165.22-19-1066.8-65.4-2143.3-81.9-3239.4 0-60.36 4.5-168.72 47.6-205.42 23.3 433.57-80.7 1086.5-132.1 1816.9-132.1 717.16 0 1359.7 49.6 1793.1 127.8" fill="#f0b066" fill-rule="evenodd"/>
    <path d="m3667.6 12743c-7.13-118-14.6-263 0-355.4 9.85-62.5 138.18-5.3 206.9 0 1112.7 85.3 2190.7 75.3 3244.9 0 60.34-4.3 175.74-55.1 181.56 0 10.65 100.6 9.81 240.8 0 355.4-2.71 31.7-43.41 27.1-88.31 17.3 5.56-51.2 25.53-108.2 28.96-126.1 7.21-37.8 0.33-170.3-210.53-131-322.4 60.1-1192.4 72-1557.4 70.8-524.08-1.8-1646.8-82.3-1648.6-75.4-97.22 22.9-116.52 265.3 51.14 237.4-41.43 24.7-59.42 19.5-88.66 26.4-60.14 13.6-117.45 22.5-119.97-19.4" fill="#f0b066" fill-rule="evenodd"/>
    <path d="m3667.6 12743c-7.13-118-14.6-263 0-355.4 9.85-62.5 138.18-5.3 206.9 0 1112.7 85.3 2190.7 75.3 3244.9 0 60.34-4.3 175.74-55.1 181.56 0 10.65 100.6 9.81 240.8 0 355.4-2.83 33.1-47.03 26.6-94.2 16 90.6 1.7 47.85-111.7 51.31-129.8 7.23-37.8 65.08-233.8-199.53-171.2-318.56 75.4-1230.9 67-1595.8 65.8-524.08-1.8-1622.9-78-1703.4-70.4-85.15 8.1-57.04 88.4-51.3 159.4 6.37 78.9-16.66 133.3 79.46 149.7-60.06 13.5-117.25 22.3-119.77-19.5" fill="#cd7f4b" fill-rule="evenodd"/>
    <path d="m3875.1 12690c-101.63-11.4-79.4-87.6-65.06-98.1 32.84-24 72.46 39.7 144.46 43.7 170.16 9.5 422.89 0.2 792.61-7.3-160.01 25.3-745.09 76-872.01 61.7" fill="#fff" fill-rule="evenodd"/>
    <path d="m7154.8 12686c82.54-9.2 64.49-71.1 52.84-79.6-26.66-19.5-58.84 32.2-117.32 35.5-138.18 7.7-343.44 0.2-643.69-5.9 129.93 20.5 605.1 61.6 708.17 50" fill="#fff" fill-rule="evenodd"/>
    <path d="m5214.3 12446c90.61 1.1 181 1.5 271.19 1.5-10.28 38-26.98 122.8 1.67 207.1 4 11.8 12.66 22.6 22.24 32.7-90.02-0.3-180.13-0.1-270.36 0.6 4.75-45.4 10.55-127.9 2.33-168.3-10.23-50.3-15.69-50.7-27.07-73.6" fill="#cd7f4b" fill-rule="evenodd"/>
    <path d="m4354 12418c195.92 10.4 390.8 17.9 584.69 22.7-23.66 41.6-65.07 60.6-106.2 87.3-59.48 38.6-6.21 61.3 37.53 93.8 18.62 13.8 58.11 40.3 71.83 70.4-210.22 4.5-421.05 12.2-632.57 23.3 7.19-50.2 82.93-112.7 120.71-131.4 12.94-6.4 50.16-28.9 37.67-46.5-16.4-23-38.43-48.8-60.48-70.8-13.47-13.5-40.49-30.9-53.18-48.8" fill="#cd7f4b" fill-rule="evenodd"/>
    <path d="m7307.8 1103.8c-7.12-118.04-14.6-262.95 0-355.43 9.86-62.43 138.18-5.269 206.91 0.012 1112.7 85.375 2190.7 75.32 3244.9 0 60.3-4.32 175.7-55.106 181.5-0.012 10.7 100.6 9.8 240.86 0 355.43-4.5 53.51-117.5 3.59-176 0-1066.8-65.43-2143.3-81.91-3239.4 0-72.39 5.41-213.88 66.32-217.89 0" fill="#fbca8e" fill-rule="evenodd"/>
    <path d="m10930 1122.8c-30.4 18.93-116.6-16.02-165.2-19-1066.8-65.43-2143.3-81.91-3239.4 0-60.35 4.5-168.72 47.57-205.42 23.35 433.58-80.72 1086.5-132.12 1816.9-132.12 717.17 0 1359.7 49.546 1793.2 127.77" fill="#f0b066" fill-rule="evenodd"/>
    <path d="m7307.8 1103.8c-7.12-118.04-14.6-262.95 0-355.43 9.86-62.43 138.18-5.269 206.91 0.012 1112.7 85.375 2190.7 75.32 3244.9 0 60.3-4.32 175.7-55.106 181.5-0.012 10.7 100.6 9.8 240.86 0 355.43-2.7 31.68-43.4 27.11-88.3 17.36 5.6-51.23 25.5-108.22 29-126.13 7.2-37.812 0.3-170.29-210.6-131-322.4 60.098-1192.4 71.965-1557.4 70.735-524.08-1.762-1646.8-82.286-1648.6-75.336-97.21 22.875-116.51 265.22 51.15 237.38-41.43 24.71-59.43 19.52-88.67 26.43-60.13 13.58-117.44 22.41-119.97-19.45" fill="#f0b066" fill-rule="evenodd"/>
    <path d="m7307.8 1103.8c-7.12-118.04-14.6-262.95 0-355.43 9.86-62.43 138.18-5.269 206.91 0.012 1112.7 85.375 2190.7 75.32 3244.9 0 60.3-4.32 175.7-55.106 181.5-0.012 10.7 100.6 9.8 240.86 0 355.43-2.8 33.05-47 26.63-94.2 16.05 90.6 1.61 47.9-111.73 51.3-129.84 7.3-37.821 65.1-233.76-199.5-171.16-318.6 75.351-1230.9 66.941-1595.8 65.715-524.08-1.786-1622.9-77.922-1703.5-70.309-85.15 8.047-57.03 88.359-51.29 159.36 6.37 78.844-16.67 133.27 79.46 149.68-60.06 13.55-117.25 22.32-119.78-19.5" fill="#cd7f4b" fill-rule="evenodd"/>
    <path d="m7515.3 1051c-101.62-11.41-79.41-87.614-65.06-98.099 32.84-24.019 72.46 39.692 144.45 43.704 170.16 9.475 422.9 0.25 792.61-7.254-160 25.279-745.07 75.909-872 61.649" fill="#fff" fill-rule="evenodd"/>
    <path d="m10795 1046.5c82.6-9.28 64.5-71.158 52.9-79.67-26.7-19.511-58.9 32.227-117.4 35.49-138.2 7.7-343.4 0.2-643.6-5.884 129.9 20.524 605 61.654 708.1 50.064" fill="#fff" fill-rule="evenodd"/>
    <path d="m3667.6 1108.8c-7.13-118.02-14.6-262.94 0-355.42 9.85-62.434 138.18-5.27 206.9 0 1112.7 85.379 2190.7 75.32 3244.9 0 60.34-4.309 175.74-55.102 181.56 0 10.65 100.6 9.81 240.86 0 355.42-4.58 53.53-117.51 3.6-176.07 0-1066.8-65.42-2143.3-81.9-3239.4 0-72.39 5.42-213.89 66.33-217.89 0" fill="#fbca8e" fill-rule="evenodd"/>
    <path d="m7290.1 1127.9c-30.41 18.93-116.58-16.01-165.22-19.01-1066.8-65.42-2143.3-81.9-3239.4 0-60.36 4.51-168.72 47.58-205.42 23.36 433.57-80.73 1086.5-132.11 1816.9-132.11 717.16 0 1359.7 49.54 1793.1 127.76" fill="#f0b066" fill-rule="evenodd"/>
    <path d="m3667.6 1108.8c-7.13-118.02-14.6-262.94 0-355.42 9.85-62.434 138.18-5.27 206.9 0 1112.7 85.379 2190.7 75.32 3244.9 0 60.34-4.309 175.74-55.102 181.56 0 10.65 100.6 9.81 240.86 0 355.42-2.71 31.7-43.41 27.11-88.31 17.36 5.56-51.21 25.53-108.2 28.96-126.11 7.21-37.827 0.33-170.31-210.53-131-322.4 60.097-1192.4 71.964-1557.4 70.734-524.08-1.773-1646.8-82.285-1648.6-75.328-97.22 22.867-116.52 265.22 51.14 237.38-41.43 24.7-59.42 19.51-88.66 26.43-60.14 13.57-117.45 22.41-119.97-19.47" fill="#f0b066" fill-rule="evenodd"/>
    <path d="m3667.6 1108.8c-7.13-118.02-14.6-262.94 0-355.42 9.85-62.434 138.18-5.27 206.9 0 1112.7 85.379 2190.7 75.32 3244.9 0 60.34-4.309 175.74-55.102 181.56 0 10.65 100.6 9.81 240.86 0 355.42-2.83 33.07-47.03 26.65-94.2 16.06 90.6 1.61 47.85-111.73 51.31-129.84 7.23-37.824 65.08-233.76-199.53-171.16-318.56 75.348-1230.9 66.941-1595.8 65.699-524.08-1.761-1622.9-77.91-1703.4-70.297-85.15 8.047-57.04 88.36-51.3 159.36 6.37 78.85-16.66 133.27 79.46 149.68-60.06 13.55-117.25 22.32-119.77-19.51" fill="#cd7f4b" fill-rule="evenodd"/>
    <path d="m3875.1 1056.1c-101.63-11.43-79.4-87.617-65.06-98.105 32.84-24.008 72.46 39.691 144.46 43.705 170.16 9.47 422.89 0.25 792.61-7.256-160.01 25.286-745.09 75.916-872.01 61.656" fill="#fff" fill-rule="evenodd"/>
    <path d="m7154.8 1051.5c82.54-9.27 64.49-71.155 52.84-79.666-26.66-19.512-58.84 32.226-117.32 35.486-138.18 7.7-343.44 0.2-643.69-5.89 129.93 20.53 605.1 61.65 708.17 50.07" fill="#fff" fill-rule="evenodd"/>
    <path d="m5288.5 12734 10.33-0.1c15.61-0.2 28.28-13.1 28.14-28.7l-2.16-263.9c-0.14-15.6-13.01-28.2-28.62-28.1l-10.32 0.1c-15.61 0.2-28.28 13.1-28.15 28.7l2.17 263.9c0.13 15.6 13 28.2 28.61 28.1" fill="#a04637" fill-rule="evenodd"/>
    <path d="m5290.7 12734 5.95-0.1c9.01-0.1 16.31-7.6 16.24-16.6l-2.36-287.9c-0.08-9-7.51-16.2-16.51-16.1h-5.96c-9 0.1-16.31 7.6-16.24 16.6l2.37 287.9c0.07 9 7.5 16.3 16.51 16.2" fill="#ca5b2c" fill-rule="evenodd"/>
    <path d="m5292.4 12725 2.38-0.1c3.6 0 6.53-3 6.5-6.6l-2.38-289.8c-0.03-3.6-3-6.5-6.61-6.5l-2.38 0.1c-3.6 0-6.52 3-6.5 6.6l2.38 289.8c0.04 3.6 3.01 6.5 6.61 6.5" fill="#cd7f4b" fill-rule="evenodd"/>
    <path d="m5355.1 12734 10.32-0.1c15.61-0.2 28.28-13.1 28.15-28.7l-2.17-263.9c-0.13-15.6-13-28.2-28.61-28.1l-10.32 0.1c-15.61 0.2-28.28 13.1-28.15 28.7l2.17 263.9c0.13 15.6 13 28.2 28.61 28.1" fill="#a04637" fill-rule="evenodd"/>
    <path d="m5357.3 12734 5.96-0.1c9-0.1 16.31-7.6 16.23-16.6l-2.35-287.9c-0.08-9-7.51-16.2-16.51-16.1h-5.96c-9 0.1-16.31 7.6-16.24 16.6l2.37 287.9c0.07 9 7.5 16.3 16.5 16.2" fill="#ca5b2c" fill-rule="evenodd"/>
    <path d="m5359 12725 2.39-0.1c3.61 0 6.53-3 6.49-6.6l-2.38-289.8c-0.02-3.6-3-6.5-6.6-6.5l-2.38 0.1c-3.61 0-6.53 3-6.5 6.6l2.38 289.8c0.03 3.6 3.01 6.5 6.6 6.5" fill="#cd7f4b" fill-rule="evenodd"/>
    <path d="m5419.6 12734 10.32-0.1c15.62-0.2 28.28-13.1 28.16-28.7l-2.18-263.9c-0.12-15.6-13-28.2-28.61-28.1l-10.32 0.1c-15.61 0.2-28.28 13.1-28.15 28.7l2.17 263.9c0.12 15.6 13 28.2 28.61 28.1" fill="#a04637" fill-rule="evenodd"/>
    <path d="m5421.8 12734 5.96-0.1c9-0.1 16.31-7.6 16.24-16.6l-2.37-287.9c-0.07-9-7.5-16.2-16.51-16.1h-5.95c-9 0.1-16.31 7.6-16.24 16.6l2.36 287.9c0.08 9 7.51 16.3 16.51 16.2" fill="#ca5b2c" fill-rule="evenodd"/>
    <path d="m5423.6 12725 2.38-0.1c3.61 0 6.53-3 6.49-6.6l-2.38-289.8c-0.02-3.6-3-6.5-6.6-6.5l-2.39 0.1c-3.6 0-6.52 3-6.48 6.6l2.38 289.8c0.02 3.6 3 6.5 6.6 6.5" fill="#cd7f4b" fill-rule="evenodd"/>
    <path d="m4440.7 11672 0.13 10.3c0.19 15.6 13.12 28.3 28.73 28.2l326.34-2.1c15.62-0.1 28.23-12.9 28.04-28.5l-0.13-10.4c-0.19-15.6-13.12-28.3-28.73-28.2l-326.34 2.1c-15.61 0.1-28.24 13-28.04 28.6" fill="#a04637" fill-rule="evenodd"/>
    <path d="m4440.7 11675 0.08 5.9c0.11 9.1 7.57 16.4 16.57 16.3l350.37-2.2c9.01-0.1 16.28-7.5 16.18-16.5l-0.08-6c-0.11-9-7.57-16.3-16.57-16.3l-350.37 2.3c-9.01 0.1-16.29 7.5-16.18 16.5" fill="#ca5b2c" fill-rule="evenodd"/>
    <path d="m4451.3 11676 0.03 2.4c0.05 3.6 3.03 6.5 6.63 6.5l348.83-2.3c3.6 0 6.51-2.9 6.46-6.5l-0.02-2.4c-0.05-3.6-3.03-6.6-6.63-6.5l-348.83 2.2c-3.6 0-6.51 3-6.47 6.6" fill="#cd7f4b" fill-rule="evenodd"/>
    <path d="m4440.6 11739 0.13 10.3c0.19 15.6 13.11 28.3 28.73 28.2l326.34-2.1c15.61-0.1 28.23-13 28.04-28.6l-0.13-10.3c-0.19-15.6-13.12-28.3-28.73-28.2l-326.34 2.1c-15.62 0.1-28.23 13-28.04 28.6" fill="#a04637" fill-rule="evenodd"/>
    <path d="m4440.6 11741 0.07 5.9c0.11 9 7.57 16.3 16.57 16.3l350.37-2.3c9 0 16.28-7.4 16.17-16.4l-0.07-6c-0.11-9-7.57-16.3-16.58-16.3l-350.36 2.3c-9.01 0-16.28 7.5-16.17 16.5" fill="#ca5b2c" fill-rule="evenodd"/>
    <path d="m4451.3 11743 0.03 2.4c0.05 3.6 3.03 6.5 6.63 6.5l348.83-2.3c3.6 0 6.51-3 6.46-6.6l-0.02-2.4c-0.05-3.6-3.03-6.5-6.63-6.5l-348.83 2.3c-3.6 0-6.51 3-6.47 6.6" fill="#cd7f4b" fill-rule="evenodd"/>
    <path d="m4440.6 11804 0.12 10.4c0.19 15.6 13.12 28.3 28.74 28.2l326.34-2.1c15.61-0.1 28.23-13 28.04-28.6l-0.13-10.3c-0.19-15.6-13.12-28.3-28.73-28.2l-326.34 2.1c-15.62 0.1-28.24 12.9-28.04 28.5" fill="#a04637" fill-rule="evenodd"/>
    <path d="m4440.6 11806 0.08 6c0.11 9 7.57 16.3 16.57 16.2l350.37-2.2c9.01-0.1 16.28-7.5 16.17-16.5l-0.07-5.9c-0.11-9.1-7.57-16.4-16.58-16.3l-350.36 2.2c-9 0.1-16.29 7.5-16.18 16.5" fill="#ca5b2c" fill-rule="evenodd"/>
    <path d="m4451.2 11808 0.03 2.4c0.04 3.6 3.03 6.6 6.63 6.5l348.83-2.2c3.6 0 6.51-3 6.47-6.6l-0.04-2.4c-0.04-3.6-3.02-6.5-6.62-6.5l-348.83 2.2c-3.6 0.1-6.51 3-6.47 6.6" fill="#cd7f4b" fill-rule="evenodd"/>
    <path d="m4326 12741 6.76 7.8c10.23 11.8 28.39 13.3 40.38 3.3l472.91-395.2c11.99-10.1 13.43-27.9 3.2-39.7l-6.76-7.8c-10.23-11.8-28.39-13.3-40.38-3.2l-472.91 395.2c-11.99 10-13.43 27.8-3.2 39.6" fill="#a04637" fill-rule="evenodd"/>
    <path d="m4327.5 12743 3.9 4.5c5.9 6.8 16.38 7.6 23.3 1.9l491.35-410.7c6.91-5.8 7.74-16 1.84-22.9l-3.9-4.5c-5.9-6.8-16.38-7.6-23.29-1.8l-491.36 410.6c-6.91 5.8-7.74 16.1-1.84 22.9" fill="#ca5b2c" fill-rule="evenodd"/>
    <path d="m4342.9 12732 1.56 1.8c2.37 2.7 6.55 3.1 9.32 0.7l477.87-399.3c2.77-2.3 3.1-6.4 0.73-9.2l-1.55-1.8c-2.36-2.7-6.55-3-9.32-0.7l-477.87 399.3c-2.77 2.4-3.1 6.5-0.74 9.2" fill="#cd7f4b" fill-rule="evenodd"/>
    <path d="m4368.5 12792 6.76 7.8c10.22 11.8 28.39 13.3 40.38 3.3l472.91-395.3c11.99-10 13.43-27.8 3.2-39.6l-6.76-7.8c-10.22-11.8-28.39-13.3-40.38-3.3l-472.91 395.3c-11.99 10-13.43 27.8-3.2 39.6" fill="#a04637" fill-rule="evenodd"/>
    <path d="m4369.9 12794 3.9 4.5c5.9 6.8 16.38 7.6 23.3 1.8l491.35-410.6c6.91-5.8 7.74-16.1 1.84-22.9l-3.9-4.5c-5.9-6.8-16.38-7.6-23.29-1.8l-491.35 410.6c-6.92 5.8-7.75 16.1-1.85 22.9" fill="#ca5b2c" fill-rule="evenodd"/>
    <path d="m4385.4 12784 1.56 1.8c2.36 2.7 6.55 3 9.32 0.7l477.88-399.3c2.76-2.3 3.09-6.5 0.73-9.2l-1.56-1.8c-2.36-2.7-6.55-3-9.32-0.7l-477.87 399.3c-2.77 2.3-3.1 6.5-0.74 9.2" fill="#cd7f4b" fill-rule="evenodd"/>
    <path d="m4409.7 12842 6.77 7.8c10.22 11.8 28.39 13.2 40.37 3.2l472.92-395.2c11.98-10 13.42-27.9 3.19-39.7l-6.76-7.8c-10.22-11.8-28.39-13.2-40.37-3.2l-472.92 395.2c-11.98 10-13.42 27.9-3.2 39.7" fill="#a04637" fill-rule="evenodd"/>
    <path d="m4411.1 12844 3.91 4.5c5.9 6.8 16.38 7.7 23.29 1.9l491.35-410.7c6.91-5.7 7.74-16 1.85-22.8l-3.91-4.5c-5.9-6.8-16.38-7.7-23.29-1.9l-491.35 410.6c-6.92 5.8-7.75 16.1-1.85 22.9" fill="#ca5b2c" fill-rule="evenodd"/>
    <path d="m4426.5 12833 1.56 1.8c2.36 2.7 6.56 3.1 9.33 0.8l477.87-399.4c2.76-2.3 3.09-6.4 0.73-9.1l-1.56-1.8c-2.36-2.8-6.55-3.1-9.31-0.8l-477.87 399.4c-2.77 2.3-3.11 6.4-0.75 9.1" fill="#cd7f4b" fill-rule="evenodd"/>
    <path d="m4454.9 12291-6.72 7.8c-10.16 11.9-8.91 30.1 2.76 40.4l460.89 409.2c11.68 10.4 29.54 9.2 39.69-2.7l6.72-7.8c10.16-11.9 8.91-30.1-2.76-40.4l-460.88-409.2c-11.68-10.4-29.55-9.2-39.7 2.7" fill="#a04637" fill-rule="evenodd"/>
    <path d="m4453.5 12292-3.87 4.6c-5.86 6.8-5.15 17.3 1.6 23.3l478.85 425.1c6.74 6 17.04 5.3 22.9-1.5l3.88-4.6c5.85-6.8 5.13-17.3-1.6-23.3l-478.85-425.1c-6.74-6-17.05-5.3-22.91 1.5" fill="#ca5b2c" fill-rule="evenodd"/>
    <path d="m4466.3 12306-1.55 1.8c-2.35 2.7-2.06 6.9 0.64 9.3l465.71 413.5c2.7 2.4 6.82 2.1 9.16-0.7l1.55-1.8c2.35-2.7 2.06-6.9-0.64-9.3l-465.71-413.5c-2.69-2.4-6.82-2.1-9.16 0.7" fill="#cd7f4b" fill-rule="evenodd"/>
    <path d="m4410.5 12340-6.71 7.8c-10.16 11.9-8.91 30 2.77 40.4l460.88 409.2c11.68 10.4 29.54 9.1 39.7-2.7l6.72-7.9c10.15-11.8 8.91-30-2.77-40.4l-460.89-409.2c-11.68-10.3-29.54-9.1-39.7 2.8" fill="#a04637" fill-rule="evenodd"/>
    <path d="m4409.1 12342-3.87 4.5c-5.86 6.9-5.14 17.4 1.6 23.4l478.85 425.1c6.74 6 17.04 5.3 22.9-1.6l3.87-4.5c5.87-6.8 5.14-17.3-1.59-23.3l-478.86-425.2c-6.73-5.9-17.03-5.2-22.9 1.6" fill="#ca5b2c" fill-rule="evenodd"/>
    <path d="m4421.8 12356-1.55 1.8c-2.34 2.8-2.06 7 0.64 9.4l465.72 413.4c2.69 2.4 6.81 2.2 9.16-0.6l1.55-1.8c2.34-2.7 2.05-6.9-0.64-9.3l-465.72-413.5c-2.69-2.4-6.82-2.1-9.16 0.6" fill="#cd7f4b" fill-rule="evenodd"/>
    <path d="m4367.4 12388-6.71 7.9c-10.16 11.8-8.92 30 2.77 40.4l460.88 409.2c11.68 10.3 29.55 9.1 39.7-2.7l6.72-7.9c10.15-11.8 8.91-30-2.77-40.4l-460.89-409.2c-11.68-10.3-29.54-9.1-39.7 2.7" fill="#a04637" fill-rule="evenodd"/>
    <path d="m4366 12390-3.88 4.5c-5.86 6.9-5.14 17.3 1.59 23.3l478.86 425.2c6.74 5.9 17.04 5.2 22.9-1.6l3.87-4.5c5.86-6.9 5.14-17.3-1.59-23.3l-478.85-425.2c-6.74-6-17.05-5.3-22.9 1.6" fill="#ca5b2c" fill-rule="evenodd"/>
    <path d="m4378.7 12404-1.55 1.8c-2.34 2.7-2.06 6.9 0.64 9.3l465.72 413.5c2.69 2.4 6.81 2.1 9.15-0.6l1.55-1.8c2.35-2.8 2.06-7-0.63-9.3l-465.72-413.5c-2.7-2.4-6.82-2.1-9.16 0.6" fill="#cd7f4b" fill-rule="evenodd"/>
    <path d="m5189.8 1521.9c26.11 0 47.4 21.3 47.4 47.4 0 26.11-21.29 47.4-47.4 47.4s-47.4-21.29-47.4-47.4c0-26.1 21.29-47.4 47.4-47.4" fill="#fde6c4" fill-rule="evenodd"/>
    <path d="m5182.4 1531.6c23.45 0 42.57 19.13 42.57 42.57s-19.12 42.56-42.57 42.56c-23.44 0-42.56-19.12-42.56-42.56s19.12-42.57 42.56-42.57" fill="#76392e" fill-rule="evenodd"/>
    <path d="m4724.4 1788.8c-13.71 7.46-18.77 24.64-11.3 38.36 7.46 13.71 24.64 18.77 38.35 11.31l434.66-237.09c13.71-7.46 18.77-24.65 11.31-38.36-7.47-13.71-24.65-18.77-38.36-11.3l-434.66 237.08" fill="#a04637"/>
    <path d="m4849.1 629c-9.66 151.35-26.1 449.58-32.83 599.91-28.88-63.93-146.86-117.57-173.79-113.08-65.04 10.85-117.62 149.53-172.13 143.85-6.19-148.78-21.2-450.39-30.3-599.72 40.34 71.117 140.89 111 198.77 126.62 60.12 16.231 152.8-113.89 210.28-157.58" fill="#cd7f4b" fill-rule="evenodd"/>
    <path d="m5224.2 1054.3c90.61-1.07 181-1.54 271.19-1.48-10.28-38.07-26.99-122.82 1.67-207.16 4-11.773 12.66-22.543 22.24-32.684-90.01 0.313-180.14 0.114-270.36-0.628 4.74 45.425 10.55 127.94 2.33 168.32-10.23 50.278-15.69 50.678-27.07 73.628" fill="#cd7f4b" fill-rule="evenodd"/>
    <path d="m4358.6 1105c195.93-10.38 390.81-17.88 584.7-22.69-23.66-41.52-65.08-60.6-106.2-87.287-59.49-38.602-6.21-61.27 37.53-93.742 18.62-13.821 58.11-40.321 71.83-70.403-210.22-4.554-421.05-12.199-632.57-23.312 7.19 50.211 82.93 112.66 120.71 131.38 12.94 6.426 50.16 28.929 37.66 46.457-16.39 23.014-38.42 48.814-60.48 70.874-13.46 13.47-40.48 30.82-53.18 48.72" fill="#cd7f4b" fill-rule="evenodd"/>
    <path d="m5298.5 767.02 10.33 0.105c15.61 0.172 28.27 13.078 28.14 28.692l-2.16 263.88c-0.13 15.61-13.01 28.24-28.62 28.08l-10.32-0.11c-15.61-0.18-28.28-13.08-28.15-28.7l2.17-263.87c0.12-15.606 13-28.242 28.61-28.074" fill="#a04637" fill-rule="evenodd"/>
    <path d="m5300.6 767.04 5.96 0.067c9.01 0.097 16.31 7.55 16.24 16.546l-2.37 287.9c-0.07 9-7.5 16.29-16.5 16.19l-5.96-0.07c-9.01-0.09-16.31-7.54-16.24-16.54l2.37-287.89c0.07-9.008 7.5-16.301 16.5-16.207" fill="#ca5b2c" fill-rule="evenodd"/>
    <path d="m5302.4 775.92 2.38 0.027c3.6 0.039 6.53 3.02 6.5 6.625l-2.38 289.81c-0.03 3.6-3 6.51-6.6 6.48l-2.39-0.03c-3.6-0.04-6.53-3.01-6.49-6.62l2.38-289.81c0.03-3.605 3-6.519 6.6-6.48" fill="#cd7f4b" fill-rule="evenodd"/>
    <path d="m5365 767.02 10.32 0.105c15.61 0.172 28.28 13.078 28.15 28.692l-2.16 263.88c-0.14 15.61-13.01 28.24-28.62 28.08l-10.32-0.11c-15.62-0.18-28.28-13.08-28.15-28.7l2.16-263.87c0.13-15.606 13.01-28.242 28.62-28.074" fill="#a04637" fill-rule="evenodd"/>
    <path d="m5367.2 767.04 5.95 0.067c9 0.097 16.31 7.55 16.24 16.546l-2.37 287.9c-0.07 9-7.5 16.29-16.5 16.19l-5.96-0.07c-9.01-0.09-16.32-7.54-16.24-16.54l2.36-287.89c0.08-9.008 7.51-16.301 16.52-16.207" fill="#ca5b2c" fill-rule="evenodd"/>
    <path d="m5368.9 775.92 2.39 0.027c3.6 0.039 6.52 3.02 6.49 6.625l-2.37 289.81c-0.04 3.6-3.01 6.51-6.61 6.48l-2.38-0.03c-3.61-0.04-6.53-3.01-6.5-6.62l2.39-289.81c0.02-3.605 2.99-6.519 6.59-6.48" fill="#cd7f4b" fill-rule="evenodd"/>
    <path d="m5429.6 767.02 10.32 0.105c15.61 0.172 28.28 13.078 28.15 28.692l-2.16 263.88c-0.14 15.61-13.01 28.24-28.62 28.08l-10.33-0.11c-15.61-0.18-28.27-13.08-28.14-28.7l2.16-263.87c0.13-15.606 13.01-28.242 28.62-28.074" fill="#a04637" fill-rule="evenodd"/>
    <path d="m5431.8 767.04 5.95 0.067c9.01 0.097 16.31 7.55 16.24 16.546l-2.37 287.9c-0.07 9-7.5 16.29-16.5 16.19l-5.96-0.07c-9.01-0.09-16.31-7.54-16.24-16.54l2.36-287.89c0.08-9.008 7.51-16.301 16.52-16.207" fill="#ca5b2c" fill-rule="evenodd"/>
    <path d="m5433.5 775.92 2.38 0.027c3.6 0.039 6.53 3.02 6.5 6.625l-2.38 289.81c-0.04 3.6-3.01 6.51-6.61 6.48l-2.38-0.03c-3.61-0.04-6.53-3.01-6.5-6.62l2.38-289.81c0.03-3.605 3-6.519 6.61-6.48" fill="#cd7f4b" fill-rule="evenodd"/>
    <path d="m4330.7 782.43 6.76-7.797c10.22-11.801 28.4-13.27 40.38-3.25l472.91 395.23c11.98 10.02 13.43 27.86 3.2 39.66l-6.77 7.8c-10.22 11.81-28.39 13.26-40.37 3.25l-472.92-395.22c-11.98-10.02-13.42-27.872-3.19-39.672" fill="#a04637" fill-rule="evenodd"/>
    <path d="m4332.1 780.78 3.9-4.5c5.9-6.812 16.38-7.652 23.29-1.879l491.36 410.64c6.91 5.78 7.74 16.07 1.84 22.88l-3.91 4.51c-5.89 6.8-16.37 7.64-23.28 1.87l-491.36-410.63c-6.91-5.777-7.74-16.082-1.84-22.887" fill="#ca5b2c" fill-rule="evenodd"/>
    <path d="m4347.6 791.37 1.56-1.801c2.36-2.726 6.55-3.058 9.32-0.754l477.87 399.37c2.77 2.3 3.1 6.42 0.74 9.15l-1.57 1.8c-2.36 2.72-6.55 3.06-9.31 0.75l-477.87-399.37c-2.77-2.305-3.1-6.422-0.74-9.149" fill="#cd7f4b" fill-rule="evenodd"/>
    <path d="m4373.2 731.14 6.76-7.797c10.22-11.801 28.39-13.258 40.38-3.25l472.91 395.23c11.98 10.01 13.43 27.87 3.19 39.66l-6.75 7.81c-10.23 11.8-28.4 13.25-40.38 3.25l-472.92-395.23c-11.98-10.02-13.41-27.872-3.19-39.672" fill="#a04637" fill-rule="evenodd"/>
    <path d="m4374.6 729.49 3.9-4.5c5.9-6.804 16.38-7.656 23.3-1.879l491.35 410.64c6.91 5.78 7.74 16.07 1.84 22.89l-3.9 4.5c-5.9 6.8-16.38 7.65-23.29 1.87l-491.36-410.64c-6.91-5.773-7.74-16.07-1.84-22.883" fill="#ca5b2c" fill-rule="evenodd"/>
    <path d="m4390 740.08 1.56-1.805c2.36-2.722 6.55-3.058 9.32-0.75l477.87 399.36c2.77 2.32 3.1 6.43 0.74 9.16l-1.56 1.8c-2.37 2.72-6.56 3.06-9.32 0.75l-477.87-399.37c-2.77-2.316-3.1-6.421-0.74-9.148" fill="#cd7f4b" fill-rule="evenodd"/>
    <path d="m4414.3 681.41 6.75-7.809c10.23-11.8 28.4-13.257 40.38-3.238l472.92 395.22c11.98 10.01 13.42 27.86 3.19 39.66l-6.76 7.8c-10.22 11.8-28.39 13.27-40.37 3.25l-472.92-395.23c-11.99-10.015-13.42-27.859-3.19-39.66" fill="#a04637" fill-rule="evenodd"/>
    <path d="m4415.7 679.77 3.9-4.512c5.9-6.805 16.38-7.652 23.3-1.867l491.35 410.62c6.91 5.78 7.75 16.08 1.84 22.89l-3.9 4.5c-5.9 6.81-16.38 7.65-23.29 1.88l-491.35-410.64c-6.91-5.778-7.75-16.071-1.85-22.875" fill="#ca5b2c" fill-rule="evenodd"/>
    <path d="m4431.2 690.34 1.56-1.801c2.36-2.719 6.56-3.059 9.32-0.742l477.88 399.36c2.76 2.32 3.09 6.43 0.73 9.15l-1.56 1.8c-2.37 2.73-6.55 3.07-9.32 0.75l-477.87-399.36c-2.77-2.308-3.1-6.426-0.74-9.152" fill="#cd7f4b" fill-rule="evenodd"/>
    <path d="m4459.6 1232.9-6.71-7.85c-10.16-11.85-8.91-30.04 2.77-40.41l460.88-409.18c11.68-10.371 29.54-9.152 39.7 2.703l6.71 7.848c10.16 11.856 8.92 30.043-2.77 40.414l-460.88 409.19c-11.68 10.37-29.54 9.15-39.7-2.71" fill="#a04637" fill-rule="evenodd"/>
    <path d="m4458.2 1231.2-3.87-4.53c-5.87-6.84-5.15-17.32 1.6-23.31l478.84-425.14c6.74-5.976 17.05-5.281 22.91 1.563l3.87 4.527c5.86 6.844 5.14 17.328-1.59 23.316l-478.86 425.14c-6.74 5.99-17.04 5.28-22.9-1.56" fill="#ca5b2c" fill-rule="evenodd"/>
    <path d="m4470.9 1217.5-1.55-1.82c-2.35-2.73-2.06-6.93 0.64-9.32l465.71-413.48c2.7-2.391 6.82-2.106 9.16 0.628l1.55 1.813c2.35 2.734 2.06 6.93-0.63 9.32l-465.72 413.47c-2.7 2.41-6.82 2.12-9.16-0.61" fill="#cd7f4b" fill-rule="evenodd"/>
    <path d="m4415.1 1183.3-6.72-7.85c-10.15-11.86-8.9-30.04 2.78-40.42l460.88-409.18c11.68-10.371 29.54-9.152 39.7 2.703l6.71 7.848c10.16 11.855 8.91 30.043-2.76 40.414l-460.88 409.18c-11.69 10.37-29.55 9.15-39.71-2.7" fill="#a04637" fill-rule="evenodd"/>
    <path d="m4413.7 1181.7-3.87-4.53c-5.86-6.84-5.14-17.33 1.59-23.31l478.86-425.15c6.73-5.988 17.03-5.281 22.9 1.562l3.87 4.528c5.86 6.843 5.15 17.328-1.59 23.316l-478.86 425.14c-6.73 5.98-17.04 5.27-22.9-1.56" fill="#ca5b2c" fill-rule="evenodd"/>
    <path d="m4426.5 1167.9-1.55-1.81c-2.35-2.74-2.06-6.93 0.64-9.33l465.71-413.48c2.69-2.39 6.82-2.105 9.16 0.629l1.55 1.813c2.35 2.734 2.06 6.929-0.64 9.32l-465.71 413.48c-2.69 2.4-6.82 2.12-9.16-0.62" fill="#cd7f4b" fill-rule="evenodd"/>
    <path d="m4372 1135.2-6.71-7.85c-10.16-11.85-8.92-30.04 2.77-40.41l460.88-409.19c11.68-10.371 29.54-9.152 39.7 2.715l6.71 7.836c10.16 11.867 8.91 30.051-2.76 40.414l-460.89 409.19c-11.68 10.37-29.54 9.14-39.7-2.71" fill="#a04637" fill-rule="evenodd"/>
    <path d="m4370.6 1133.6-3.87-4.53c-5.86-6.84-5.14-17.33 1.59-23.31l478.86-425.15c6.73-5.977 17.04-5.27 22.9 1.562l3.87 4.528c5.86 6.843 5.15 17.339-1.59 23.316l-478.86 425.14c-6.74 5.99-17.04 5.28-22.9-1.56" fill="#ca5b2c" fill-rule="evenodd"/>
    <path d="m4383.4 1119.9-1.56-1.81c-2.34-2.73-2.05-6.93 0.64-9.32l465.72-413.48c2.7-2.402 6.82-2.117 9.16 0.617l1.55 1.813c2.34 2.746 2.06 6.937-0.64 9.332l-465.71 413.47c-2.7 2.39-6.82 2.11-9.16-0.63" fill="#cd7f4b" fill-rule="evenodd"/>
    <path d="m4800 6405.5c-2.63 102.47-4.62 204.73-6.01 306.76-9.92-3.98-22.84-8.41-42.11-10.83-60.41-7.57-140.05-28.65-199.07-8.41-21.34 2.11-41.18 9.44-59.13 18.21-1.07-97.57-2.68-195.23-4.84-293.01 45.68 22.33 123.86 50.07 148.2 49.01 107.27-4.66 135.09-45.26 162.96-61.73" fill="#cd7f4b" fill-rule="evenodd"/>
    <path d="m4451 6644.6 0.12-10.32c0.19-15.61 13.12-28.28 28.73-28.19l319.21 2.1c15.61 0.1 28.23 12.96 28.04 28.57l-0.11 10.31c-0.2 15.62-13.12 28.3-28.73 28.21l-319.22-2.11c-15.61-0.09-28.23-12.95-28.04-28.57" fill="#a04637" fill-rule="evenodd"/>
    <path d="m4451 6642.5 0.08-5.94c0.1-9.01 7.56-16.33 16.57-16.27l343.23 2.25c9.01 0.06 16.29 7.48 16.18 16.48l-0.07 5.95c-0.11 9.01-7.56 16.33-16.57 16.27l-343.24-2.25c-9.01-0.06-16.28-7.48-16.18-16.49" fill="#ca5b2c" fill-rule="evenodd"/>
    <path d="m4461.4 6640.8 0.03-2.38c0.05-3.61 3.02-6.53 6.63-6.51l342.1 2.25c3.6 0.02 6.5 2.99 6.46 6.59l-0.03 2.38c-0.04 3.61-3.02 6.53-6.62 6.51l-342.1-2.25c-3.6-0.02-6.51-2.99-6.47-6.59" fill="#cd7f4b" fill-rule="evenodd"/>
    <path d="m4451 6578.1 0.12-10.32c0.19-15.61 13.11-28.3 28.73-28.2l319.22 2.1c15.61 0.1 28.22 12.96 28.04 28.57l-0.13 10.32c-0.19 15.61-13.11 28.3-28.72 28.2l-319.22-2.1c-15.61-0.1-28.23-12.96-28.04-28.57" fill="#a04637" fill-rule="evenodd"/>
    <path d="m4451 6575.9 0.08-5.95c0.11-9.01 7.56-16.33 16.57-16.28l343.24 2.27c9 0.05 16.28 7.47 16.17 16.48l-0.07 5.95c-0.11 9.01-7.57 16.32-16.57 16.27l-343.24-2.25c-9.01-0.07-16.29-7.49-16.18-16.49" fill="#ca5b2c" fill-rule="evenodd"/>
    <path d="m4461.4 6574.2 0.03-2.38c0.04-3.61 3.02-6.53 6.63-6.5l342.09 2.23c3.61 0.03 6.52 3 6.47 6.6l-0.02 2.38c-0.05 3.61-3.03 6.54-6.63 6.52l-342.1-2.25c-3.6-0.03-6.51-3-6.47-6.6" fill="#cd7f4b" fill-rule="evenodd"/>
    <path d="m4450.9 6513.5 0.12-10.33c0.19-15.61 13.12-28.29 28.73-28.19l319.22 2.1c15.61 0.11 28.23 12.96 28.04 28.57l-0.13 10.32c-0.19 15.61-13.11 28.3-28.72 28.19l-319.22-2.08c-15.61-0.11-28.23-12.97-28.04-28.58" fill="#a04637" fill-rule="evenodd"/>
    <path d="m4451 6511.3 0.07-5.95c0.11-9 7.56-16.32 16.57-16.26l343.24 2.26c9 0.06 16.28 7.47 16.17 16.48l-0.07 5.95c-0.11 9-7.56 16.32-16.57 16.27l-343.23-2.25c-9.02-0.07-16.3-7.49-16.18-16.5" fill="#ca5b2c" fill-rule="evenodd"/>
    <path d="m4461.4 6509.6 0.03-2.38c0.05-3.6 3.03-6.53 6.63-6.5l342.1 2.24c3.6 0.03 6.51 2.99 6.47 6.59l-0.04 2.39c-0.04 3.6-3.02 6.53-6.62 6.51l-342.1-2.25c-3.6-0.03-6.51-3-6.47-6.6" fill="#cd7f4b" fill-rule="evenodd"/>
    <path d="m5277.9 6759.4c25.83 4.35 43.23 28.8 38.89 54.61s-28.8 43.22-54.61 38.88c-25.82-4.34-43.23-28.79-38.88-54.61 4.33-25.81 28.79-43.23 54.6-38.88" fill="#fde6c4" fill-rule="evenodd"/>
    <path d="m5269 6767.7c23.18 3.9 38.8 25.86 34.91 49.04-3.9 23.18-25.86 38.81-49.04 34.91s-38.81-25.85-34.91-49.04c3.9-23.18 25.85-38.8 49.04-34.91" fill="#76392e" fill-rule="evenodd"/>
    <path d="m4774.7 6945.3c-14.76 5.09-22.61 21.2-17.52 35.95 5.1 14.77 21.2 22.61 35.96 17.52l467.97-161.68c14.75-5.09 22.6-21.19 17.51-35.95s-21.19-22.61-35.96-17.52l-467.96 161.68" fill="#a04637"/>
    <path d="m4794.6 6800.2c-2.57 102.48-4.54 204.74-5.9 306.77-9.73-3.99-22.4-8.42-41.32-10.84-59.28-7.57-137.42-28.64-195.33-8.41-20.94 2.1-40.41 9.44-58.02 18.21-1.06-97.56-2.63-195.23-4.75-293.01 44.82 22.32 121.53 50.07 145.42 49.02 105.26-4.68 132.56-45.28 159.9-61.74" fill="#cd7f4b" fill-rule="evenodd"/>
    <path d="m4452.1 7039.4 0.13-10.33c0.19-15.6 13.11-28.29 28.72-28.18l312.16 2.09c15.61 0.1 28.23 12.96 28.05 28.57l-0.13 10.32c-0.18 15.61-13.1 28.29-28.71 28.19l-312.16-2.09c-15.61-0.1-28.24-12.96-28.06-28.57" fill="#a04637" fill-rule="evenodd"/>
    <path d="m4452.2 7037.2 0.07-5.96c0.1-9.01 7.55-16.32 16.56-16.26l336.18 2.25c9.01 0.06 16.29 7.47 16.18 16.48l-0.07 5.96c-0.11 9.01-7.56 16.32-16.56 16.26l-336.18-2.25c-9.01-0.06-16.29-7.48-16.18-16.48" fill="#ca5b2c" fill-rule="evenodd"/>
    <path d="m4462.4 7035.5 0.02-2.39c0.04-3.6 3.03-6.52 6.63-6.5l335.43 2.25c3.6 0.02 6.51 2.99 6.47 6.59l-0.03 2.39c-0.04 3.59-3.02 6.52-6.62 6.5l-335.43-2.25c-3.6-0.02-6.51-2.99-6.47-6.59" fill="#cd7f4b" fill-rule="evenodd"/>
    <path d="m4452.1 6972.8 0.12-10.32c0.18-15.61 13.11-28.3 28.72-28.19l312.16 2.09c15.61 0.1 28.23 12.96 28.05 28.57l-0.12 10.32c-0.19 15.62-13.11 28.3-28.72 28.2l-312.16-2.09c-15.61-0.11-28.24-12.97-28.05-28.58" fill="#a04637" fill-rule="evenodd"/>
    <path d="m4452.1 6970.6 0.07-5.96c0.11-9 7.57-16.32 16.57-16.26l336.18 2.25c9.01 0.06 16.28 7.48 16.18 16.48l-0.07 5.96c-0.11 9.01-7.56 16.32-16.56 16.26l-336.19-2.25c-9-0.06-16.28-7.47-16.18-16.48" fill="#ca5b2c" fill-rule="evenodd"/>
    <path d="m4462.4 6968.9 0.02-2.38c0.05-3.61 3.03-6.53 6.63-6.51l335.43 2.25c3.6 0.02 6.51 2.99 6.47 6.59l-0.03 2.39c-0.04 3.6-3.02 6.53-6.62 6.5l-335.43-2.25c-3.6-0.02-6.52-2.99-6.47-6.59" fill="#cd7f4b" fill-rule="evenodd"/>
    <path d="m4452.1 6908.2 0.13-10.32c0.18-15.61 13.1-28.29 28.71-28.19l312.16 2.09c15.61 0.1 28.23 12.96 28.04 28.57l-0.11 10.32c-0.19 15.62-13.11 28.3-28.72 28.2l-312.16-2.1c-15.61-0.1-28.24-12.95-28.05-28.57" fill="#a04637" fill-rule="evenodd"/>
    <path d="m4452.1 6906.1 0.07-5.95c0.11-9.01 7.57-16.33 16.57-16.27l336.18 2.25c9.01 0.06 16.29 7.48 16.18 16.48l-0.07 5.96c-0.11 9.01-7.56 16.33-16.57 16.26l-336.18-2.25c-9-0.06-16.28-7.47-16.18-16.48" fill="#ca5b2c" fill-rule="evenodd"/>
    <path d="m4462.3 6904.3 0.03-2.38c0.04-3.6 3.02-6.53 6.63-6.51l335.42 2.25c3.6 0.02 6.51 2.99 6.48 6.59l-0.04 2.38c-0.04 3.61-3.02 6.54-6.63 6.51l-335.42-2.25c-3.6-0.02-6.52-2.98-6.47-6.59" fill="#cd7f4b" fill-rule="evenodd"/>
    <path d="m13061 11899c26.2 0 47.5 21.3 47.5 47.4s-21.3 47.4-47.5 47.4c-26.1 0-47.4-21.3-47.4-47.4s21.3-47.4 47.4-47.4" fill="#fde6c4" fill-rule="evenodd"/>
    <path d="m13068 11899c23.4 0 42.5 19.1 42.5 42.5 0 23.5-19.1 42.6-42.5 42.6-23.5 0-42.6-19.1-42.6-42.6 0-23.4 19.1-42.5 42.6-42.5" fill="#76392e" fill-rule="evenodd"/>
    <path d="m13526 11727c13.7-7.5 18.8-24.6 11.3-38.3-7.4-13.8-24.6-18.8-38.3-11.4l-434.7 237.1c-13.7 7.5-18.8 24.7-11.3 38.4s24.7 18.8 38.4 11.3l434.6-237.1" fill="#a04637"/>
    <path d="m13824 8996.8c-148.6 8.7-331.1 17.83-447.6 0-78.6-12.05-6.6-168.8 0-252.75 107.6-1359.2 94.9-2676 0-3963.6-5.4-73.7-69.4-214.67 0-221.79 126.7-13 303.4-11.98 447.6 0 67.4 5.6 4.6 143.55 0 215.08-82.4 1303.1-103.1 2618.1 0 3957 6.9 88.42 83.6 261.26 0 266.16" fill="#fbca8e" fill-rule="evenodd"/>
    <path d="m13848 4571.8c23.8 37.15-20.2 142.38-24 201.81-82.4 1303.1-103.1 2618.1 0 3957 5.7 73.71 60 206.09 29.5 250.92-101.7-529.62-166.4-1327.2-166.4-2219.3 0-876.02 62.4-1660.8 160.9-2190.3" fill="#f0b066" fill-rule="evenodd"/>
    <path d="m13824 8996.8c-148.6 8.7-331.1 17.83-447.6 0-78.6-12.05-6.6-168.8 0-252.75 107.6-1359.2 94.9-2676 0-3963.6-5.4-73.7-69.4-214.67 0-221.79 126.7-13 303.4-11.98 447.6 0 40 3.31 34.2 53.03 21.9 107.87-64.5-6.78-136.3-31.18-158.8-35.35-47.6-8.83-214.5-0.41-165 257.15 75.7 393.82 90.6 1456.6 89.1 1902.4-2.2 640.16-103.6 2011.6-94.9 2013.7 28.8 118.76 334 142.33 299-62.47 31.1 50.61 24.5 72.59 33.3 108.31 17 73.45 28.2 143.45-24.6 146.55" fill="#f0b066" fill-rule="evenodd"/>
    <path d="m13824 8996.8c-148.6 8.7-331.1 17.83-447.6 0-78.6-12.05-6.6-168.8 0-252.75 107.6-1359.2 94.9-2676 0-3963.6-5.4-73.7-69.4-214.67 0-221.79 126.7-13 303.4-11.98 447.6 0 41.7 3.46 33.6 57.45 20.3 115.08 2-110.68-140.7-58.46-163.5-62.68-47.7-8.83-294.4-79.5-215.6 243.74 94.9 389.12 84.3 1503.5 82.7 1949.4-2.2 640.16-98.1 1982.4-88.5 2080.8 10.1 104.02 111.3 69.67 200.7 62.66 99.3-7.79 167.8 20.35 188.5-97.06 17.1 73.36 28.1 143.22-24.6 146.31" fill="#cd7f4b" fill-rule="evenodd"/>
    <path d="m13757 8743.3c-14.4 124.14-110.4 97-123.6 79.48-30.2-40.12 50-88.51 55.1-176.46 11.9-207.85 0.3-516.57-9.2-968.18 31.9 195.43 95.6 910.11 77.7 1065.2" fill="#fff" fill-rule="evenodd"/>
    <path d="m13752 4737.2c-11.7-100.83-89.6-78.77-100.3-64.55-24.6 32.59 40.6 71.89 44.7 143.32 9.7 168.78 0.2 419.52-7.4 786.29 25.8-158.72 77.6-739.14 63-865.06" fill="#fff" fill-rule="evenodd"/>
    <path d="m13830 13443c-148.7 8.7-331.2 17.8-447.6 0-78.7-12.1-6.7-168.8 0-252.8 107.5-1359.2 94.8-2675.9 0-3963.6-5.5-73.7-69.4-214.67 0-221.78 126.6-13 303.3-11.98 447.6 0 67.4 5.59 4.5 143.54 0 215.08-82.4 1303.1-103.2 2618.1 0 3956.9 6.8 88.4 83.5 261.3 0 266.2" fill="#fbca8e" fill-rule="evenodd"/>
    <path d="m13854 9018.4c23.8 37.14-20.2 142.39-23.9 201.82-82.4 1303.1-103.2 2618.1 0 3956.9 5.7 73.7 59.9 206.1 29.4 250.9-101.7-529.6-166.4-1327.1-166.4-2219.3 0-876 62.4-1660.8 160.9-2190.3" fill="#f0b066" fill-rule="evenodd"/>
    <path d="m13830 13443c-148.7 8.7-331.2 17.8-447.6 0-78.7-12.1-6.7-168.8 0-252.8 107.5-1359.2 94.8-2675.9 0-3963.6-5.5-73.7-69.4-214.67 0-221.78 126.6-13 303.3-11.98 447.6 0 39.9 3.31 34.1 53.02 21.8 107.87-64.5-6.79-136.2-31.18-158.8-35.36-47.6-8.83-214.5-0.41-165 257.16 75.7 393.81 90.7 1456.5 89.1 1902.4-2.2 640.1-103.6 2011.6-94.9 2013.7 28.8 118.7 334 142.3 299-62.5 31.1 50.6 24.6 72.6 33.3 108.3 17.1 73.5 28.2 143.5-24.5 146.6" fill="#f0b066" fill-rule="evenodd"/>
    <path d="m13830 13443c-148.7 8.7-331.2 17.8-447.6 0-78.7-12.1-6.7-168.8 0-252.8 107.5-1359.2 94.8-2675.9 0-3963.6-5.5-73.7-69.4-214.67 0-221.78 126.6-13 303.3-11.98 447.6 0 41.6 3.45 33.5 57.44 20.2 115.07 2-110.67-140.7-58.45-163.5-62.68-47.7-8.83-294.4-79.49-215.6 243.74 94.9 389.12 84.3 1503.6 82.8 1949.4-2.3 640.2-98.2 1982.4-88.6 2080.8 10.1 104 111.3 69.6 200.7 62.6 99.3-7.8 167.9 20.4 188.5-97 17.1 73.3 28.1 143.2-24.5 146.3" fill="#cd7f4b" fill-rule="evenodd"/>
    <path d="m13764 13190c-12.7 124.3-110.4 96.9-123.6 79.4-30.2-40.1 34.1-7.2 65.4-88.9 14.5-37.8 23.5-130.2 32.1-360.3 31.8 195.5 33.8 294.6 26.1 369.8" fill="#fff" fill-rule="evenodd"/>
    <path d="m13758 9183.7c-11.6-100.82-89.6-78.76-100.3-64.54-24.6 32.58 40.6 71.88 44.7 143.31 9.7 168.79 0.3 419.52-7.4 786.24 25.9-158.68 77.6-739.09 63-865.01" fill="#fff" fill-rule="evenodd"/>
    <path d="m13450 11904c2.7-102.5 4.7-204.7 6.2-306.8 10.1 4 23.2 8.4 42.9 10.9 61.5 7.5 142.7 28.6 202.8 8.4 21.8-2.1 42-9.5 60.3-18.2 1.1 97.5 2.7 195.2 4.9 293-46.5-22.4-126.2-50.1-151-49-109.3 4.6-137.7 45.2-166.1 61.7" fill="#cd7f4b" fill-rule="evenodd"/>
    <path d="m13405 12886c9.5-151.4 25.7-449.6 32.3-599.9 28.5 63.9 144.7 117.5 171.2 113 64.1-10.8 115.9-149.5 169.7-143.8 6.1 148.8 20.8 450.4 29.8 599.7-39.7-71.1-138.8-111-195.9-126.6-59.2-16.2-150.5 113.9-207.1 157.6" fill="#cd7f4b" fill-rule="evenodd"/>
    <path d="m13824 4556.9c-148.6 8.72-331.1 17.85-447.6 0-78.6-12.03-6.6-168.78 0-252.73 107.6-1359.2 94.9-2676 0-3963.6-5.4-73.711-69.4-214.68 0-221.8 126.7-13 303.4-11.98 447.6 0 67.4 5.598 4.6 143.55 0 215.09-82.4 1303.1-103.1 2618.1 0 3956.9 6.9 88.42 83.6 261.26 0 266.15" fill="#fbca8e" fill-rule="evenodd"/>
    <path d="m13848 132c23.8 37.144-20.2 142.39-24 201.82-82.4 1303.1-103.1 2618.1 0 3956.9 5.7 73.72 60 206.1 29.5 250.92-101.7-529.61-166.4-1327.2-166.4-2219.3 0-876.03 62.4-1660.8 160.9-2190.3" fill="#f0b066" fill-rule="evenodd"/>
    <path d="m13824 4556.9c-148.6 8.72-331.1 17.85-447.6 0-78.6-12.03-6.6-168.78 0-252.73 107.6-1359.2 94.9-2676 0-3963.6-5.4-73.711-69.4-214.68 0-221.8 126.7-13 303.4-11.98 447.6 0 40 3.321 34.2 53.028 21.9 107.87-64.5-6.785-136.3-31.167-158.8-35.359-47.6-8.828-214.5-0.402-165 257.16 75.7 393.81 90.6 1456.6 89.1 1902.4-2.2 640.18-103.6 2011.6-94.9 2013.7 28.8 118.75 334 142.32 299-62.47 31.1 50.6 24.5 72.59 33.3 108.31 17 73.44 28.2 143.44-24.6 146.53" fill="#f0b066" fill-rule="evenodd"/>
    <path d="m13824 4556.9c-148.6 8.72-331.1 17.85-447.6 0-78.6-12.03-6.6-168.78 0-252.73 107.6-1359.2 94.9-2676 0-3963.6-5.4-73.711-69.4-214.68 0-221.8 126.7-13 303.4-11.98 447.6 0 41.7 3.461 33.6 57.461 20.3 115.08 2-110.67-140.7-58.458-163.5-62.672-47.7-8.844-294.4-79.493-215.6 243.73 94.9 389.12 84.3 1503.5 82.7 1949.4-2.2 640.17-98.1 1982.4-88.5 2080.8 10.1 104.02 111.3 69.68 200.7 62.66 99.3-7.78 167.8 20.35 188.5-97.06 17.1 73.37 28.1 143.23-24.6 146.3" fill="#cd7f4b" fill-rule="evenodd"/>
    <path d="m13757 4303.5c-14.4 124.14-110.4 96.99-123.6 79.47-30.2-40.12 50-88.51 55.1-176.46 11.9-207.85 0.3-516.57-9.2-968.17 31.9 195.43 95.6 910.1 77.7 1065.2" fill="#fff" fill-rule="evenodd"/>
    <path d="m13752 297.33c-11.7-100.82-89.6-78.769-100.3-64.547-24.6 32.586 35 38.887 54.5 107.38 21.1 74.059 19.8 199 8.9 387.71 25.9-158.72 51.5-304.61 36.9-430.54" fill="#fff" fill-rule="evenodd"/>
    <path d="m13425 1169.8c-6.6-146.78-14.3-293.16-23.1-439.15 1.1-129.45 96.5-105.73 100.4-80.418 20.9 134.68 207.6 124.04 298.8 65.961-8.1 151.28-15.2 302.74-21.4 454.38-18.3-22.51-32.9-33.2-102.4-65.68-36.8-17.17-143.3 8.21-138.6 137.87 3.7 101.76-20.6 49.03-113.7-72.97" fill="#cd7f4b" fill-rule="evenodd"/>
    <path d="m14579 12735c7.1-118 14.6-263 0-355.4-9.9-62.5-138.2-5.3-206.9 0-1112.8 85.4-2190.7 75.3-3244.9 0-60.3-4.3-175.7-55.1-181.6 0-10.6 100.6-9.8 240.8 0 355.4 4.6 53.5 117.6 3.6 176.1 0 1066.8-65.4 2143.3-81.9 3239.4 0 72.4 5.4 213.9 66.3 217.9 0" fill="#fbca8e" fill-rule="evenodd"/>
    <path d="m10956 12754c30.4 18.9 116.6-16 165.2-19 1066.8-65.4 2143.3-81.9 3239.4 0 60.3 4.5 168.7 47.6 205.4 23.3-433.6-80.7-1086.5-132.1-1816.9-132.1-717.1 0-1359.6 49.6-1793.1 127.8" fill="#f0b066" fill-rule="evenodd"/>
    <path d="m14579 12735c7.1-118 14.6-263 0-355.4-9.9-62.5-138.2-5.3-206.9 0-1112.8 85.4-2190.7 75.3-3244.9 0-60.3-4.3-175.7-55.1-181.6 0-10.6 100.6-9.8 240.8 0 355.4 2.8 31.7 43.5 27.1 88.4 17.3-5.6-51.2-25.6-108.2-29-126.1-7.2-37.8-0.3-170.3 210.5-131 322.4 60.1 1192.5 72 1557.4 70.8 524.1-1.8 1646.8-82.3 1648.6-75.4 97.2 22.9 116.5 265.3-51.2 237.4 41.5 24.7 59.5 19.5 88.7 26.4 60.1 13.6 117.4 22.5 120-19.4" fill="#f0b066" fill-rule="evenodd"/>
    <path d="m14579 12735c7.1-118 14.6-263 0-355.4-9.9-62.5-138.2-5.3-206.9 0-1112.8 85.4-2190.7 75.3-3244.9 0-60.3-4.3-175.7-55.1-181.6 0-10.6 100.6-9.8 240.8 0 355.4 2.9 33.1 47.1 26.6 94.3 16-90.6 1.7-47.9-111.7-51.4-129.8-7.2-37.8-65-233.8 199.6-171.2 318.5 75.4 1230.9 67 1595.8 65.8 524.1-1.8 1622.9-78 1703.5-70.4 85.1 8.1 57 88.4 51.3 159.4-6.4 78.9 16.6 133.3-79.5 149.7 60.1 13.5 117.3 22.3 119.8-19.5" fill="#cd7f4b" fill-rule="evenodd"/>
    <path d="m14371 12682c101.6-11.4 79.4-87.6 65.1-98.1-32.9-24-72.5 39.7-144.5 43.7-170.1 9.5-422.9 0.2-792.6-7.3 160 25.3 745.1 76 872 61.7" fill="#fff" fill-rule="evenodd"/>
    <path d="m11091 12677c-82.5-9.2-64.4-71.1-52.8-79.6 26.7-19.5 58.9 32.2 117.3 35.5 138.2 7.7 343.5 0.2 643.7-5.9-129.9 20.5-605.1 61.6-708.2 50" fill="#fff" fill-rule="evenodd"/>
    <path d="m13032 12438c-90.6 1.1-181 1.5-271.2 1.5 10.3 38.1 27 122.8-1.6 207.1-4 11.8-12.7 22.6-22.3 32.7 90.1-0.3 180.2-0.1 270.4 0.6-4.8-45.4-10.6-127.9-2.3-168.3 10.2-50.3 15.7-50.7 27-73.6" fill="#cd7f4b" fill-rule="evenodd"/>
    <path d="m13892 12410c-196 10.4-390.8 17.9-584.7 22.7 23.6 41.6 65 60.6 106.2 87.3 59.5 38.6 6.2 61.3-37.6 93.8-18.6 13.8-58.1 40.3-71.8 70.4 210.2 4.5 421.1 12.2 632.6 23.3-7.2-50.2-83-112.7-120.7-131.4-13-6.4-50.2-28.9-37.7-46.5 16.4-23 38.4-48.8 60.5-70.8 13.5-13.5 40.5-30.8 53.2-48.8" fill="#cd7f4b" fill-rule="evenodd"/>
    <path d="m14579 1100.7c7.1-118.03 14.6-262.94 0-355.42-9.9-62.433-138.2-5.273-206.9 0-1112.8 85.383-2190.7 75.328-3244.9 0-60.3-4.308-175.7-55.093-181.6 0-10.6 100.6-9.8 240.86 0 355.42 4.6 53.52 117.6 3.59 176.1 0 1066.8-65.42 2143.3-81.91 3239.4 0 72.4 5.41 213.9 66.33 217.9 0" fill="#fbca8e" fill-rule="evenodd"/>
    <path d="m10956 1119.7c30.4 18.93 116.6-16.01 165.2-19 1066.8-65.42 2143.3-81.91 3239.4 0 60.3 4.5 168.7 47.58 205.4 23.36-433.6-80.73-1086.5-132.12-1816.9-132.12-717.1 0-1359.6 49.552-1793.1 127.76" fill="#f0b066" fill-rule="evenodd"/>
    <path d="m14579 1100.7c7.1-118.03 14.6-262.94 0-355.42-9.9-62.433-138.2-5.273-206.9 0-1112.8 85.383-2190.7 75.328-3244.9 0-60.3-4.308-175.7-55.093-181.6 0-10.6 100.6-9.8 240.86 0 355.42 2.8 31.69 43.5 27.11 88.4 17.35-5.6-51.21-25.6-108.2-29-126.11-7.2-37.812-0.3-170.3 210.5-130.99 322.4 60.098 1192.5 71.965 1557.4 70.735 524.1-1.774 1646.8-82.289 1648.6-75.332 97.2 22.867 116.5 265.22-51.2 237.38 41.5 24.7 59.5 19.51 88.7 26.43 60.1 13.58 117.4 22.4 120-19.46" fill="#f0b066" fill-rule="evenodd"/>
    <path d="m14579 1100.7c7.1-118.03 14.6-262.94 0-355.42-9.9-62.433-138.2-5.273-206.9 0-1112.8 85.383-2190.7 75.328-3244.9 0-60.3-4.308-175.7-55.093-181.6 0-10.6 100.6-9.8 240.86 0 355.42 2.9 33.06 47.1 26.64 94.3 16.05-90.6 1.62-47.9-111.73-51.4-129.84-7.2-37.82-65-233.75 199.6-171.17 318.5 75.356 1230.9 66.949 1595.8 65.711 524.1-1.773 1622.9-77.914 1703.5-70.297 85.1 8.043 57 88.359 51.3 159.36-6.4 78.85 16.6 133.27-79.5 149.69 60.1 13.54 117.3 22.31 119.8-19.51" fill="#cd7f4b" fill-rule="evenodd"/>
    <path d="m14371 1047.9c101.6-11.42 79.4-87.616 65.1-98.1-32.9-24.012-72.5 39.687-144.5 43.703-170.1 9.477-422.9 0.246-792.6-7.254 160 25.281 745.1 75.911 872 61.651" fill="#fff" fill-rule="evenodd"/>
    <path d="m11091 1043.3c-82.5-9.27-64.4-71.15-52.8-79.662 26.7-19.511 58.9 32.227 117.3 35.485 138.2 7.707 343.5 0.199 643.7-5.891-129.9 20.528-605.1 61.648-708.2 50.068" fill="#fff" fill-rule="evenodd"/>
    <path d="m12958 12725-10.3-0.1c-15.6-0.2-28.3-13.1-28.2-28.7l2.2-263.9c0.1-15.6 13-28.2 28.6-28.1l10.3 0.1c15.6 0.2 28.3 13.1 28.2 28.7l-2.2 263.9c-0.1 15.6-13 28.3-28.6 28.1" fill="#a04637" fill-rule="evenodd"/>
    <path d="m12956 12725-5.9-0.1c-9-0.1-16.4-7.5-16.3-16.5l2.4-287.9c0.1-9 7.5-16.3 16.5-16.2h6c9 0.1 16.3 7.6 16.2 16.6l-2.4 287.9c0 9-7.5 16.3-16.5 16.2" fill="#ca5b2c" fill-rule="evenodd"/>
    <path d="m12954 12716-2.4-0.1c-3.6 0-6.5-3-6.5-6.6l2.4-289.8c0-3.6 3-6.5 6.6-6.5l2.4 0.1c3.6 0 6.5 3 6.5 6.6l-2.4 289.8c0 3.6-3 6.5-6.6 6.5" fill="#cd7f4b" fill-rule="evenodd"/>
    <path d="m12891 12725-10.3-0.1c-15.6-0.2-28.3-13.1-28.1-28.7l2.1-263.9c0.2-15.6 13-28.2 28.6-28.1l10.4 0.1c15.6 0.2 28.2 13.1 28.1 28.7l-2.2 263.9c-0.1 15.6-13 28.3-28.6 28.1" fill="#a04637" fill-rule="evenodd"/>
    <path d="m12889 12725-5.9-0.1c-9-0.1-16.3-7.5-16.3-16.5l2.4-287.9c0.1-9 7.5-16.3 16.5-16.2h6c9 0.1 16.3 7.6 16.2 16.6l-2.4 287.9c0 9-7.5 16.3-16.5 16.2" fill="#ca5b2c" fill-rule="evenodd"/>
    <path d="m12887 12716-2.4-0.1c-3.6 0-6.5-3-6.5-6.6l2.4-289.8c0.1-3.6 3-6.5 6.6-6.5l2.4 0.1c3.6 0 6.5 3 6.5 6.6l-2.4 289.8c0 3.6-3 6.5-6.6 6.5" fill="#cd7f4b" fill-rule="evenodd"/>
    <path d="m12827 12725-10.4-0.1c-15.6-0.2-28.2-13.1-28.1-28.7l2.2-263.9c0.1-15.6 13-28.2 28.6-28.1l10.3 0.1c15.6 0.2 28.3 13.1 28.1 28.7l-2.1 263.9c-0.2 15.6-13 28.3-28.6 28.1" fill="#a04637" fill-rule="evenodd"/>
    <path d="m12824 12725-6-0.1c-9-0.1-16.3-7.5-16.2-16.5l2.3-287.9c0.1-9 7.6-16.3 16.6-16.2h5.9c9 0.1 16.3 7.6 16.3 16.6l-2.4 287.9c-0.1 9-7.5 16.3-16.5 16.2" fill="#ca5b2c" fill-rule="evenodd"/>
    <path d="m12823 12716-2.4-0.1c-3.6 0-6.5-3-6.5-6.6l2.4-289.8c0-3.6 3-6.5 6.6-6.5l2.4 0.1c3.6 0 6.5 3 6.5 6.6l-2.4 289.8c-0.1 3.6-3 6.5-6.6 6.5" fill="#cd7f4b" fill-rule="evenodd"/>
    <path d="m13806 11664-0.2 10.3c-0.2 15.6-13.1 28.3-28.7 28.2l-326.3-2.1c-15.7-0.1-28.3-12.9-28.1-28.5l0.1-10.4c0.2-15.6 13.2-28.3 28.8-28.2l326.3 2.1c15.6 0.1 28.2 13 28.1 28.6" fill="#a04637" fill-rule="evenodd"/>
    <path d="m13806 11666v5.9c-0.2 9-7.6 16.4-16.6 16.3l-350.4-2.2c-9-0.1-16.3-7.5-16.2-16.5l0.1-6c0.1-9 7.6-16.3 16.6-16.2l350.4 2.2c9 0.1 16.2 7.5 16.1 16.5" fill="#ca5b2c" fill-rule="evenodd"/>
    <path d="m13795 11668v2.4c-0.1 3.6-3 6.5-6.6 6.5l-348.9-2.3c-3.6 0-6.5-2.9-6.4-6.5v-2.4c0-3.6 3-6.6 6.6-6.5l348.8 2.2c3.6 0 6.6 3 6.5 6.6" fill="#cd7f4b" fill-rule="evenodd"/>
    <path d="m13806 11731-0.1 10.3c-0.2 15.6-13.2 28.3-28.8 28.2l-326.3-2.1c-15.6-0.1-28.2-13-28-28.6l0.1-10.3c0.2-15.6 13.1-28.3 28.7-28.2l326.4 2.1c15.6 0.1 28.2 13 28 28.6" fill="#a04637" fill-rule="evenodd"/>
    <path d="m13806 11733-0.1 5.9c-0.1 9-7.6 16.3-16.6 16.3l-350.3-2.3c-9 0-16.3-7.4-16.2-16.4l0.1-6c0.1-9 7.5-16.3 16.5-16.3l350.4 2.3c9 0 16.3 7.5 16.2 16.5" fill="#ca5b2c" fill-rule="evenodd"/>
    <path d="m13795 11735v2.4c0 3.6-3 6.5-6.6 6.5l-348.8-2.3c-3.6 0-6.5-3-6.5-6.6v-2.4c0.1-3.6 3.1-6.5 6.7-6.5l348.8 2.3c3.6 0 6.5 3 6.4 6.6" fill="#cd7f4b" fill-rule="evenodd"/>
    <path d="m13806 11795-0.1 10.4c-0.2 15.6-13.1 28.3-28.7 28.2l-326.4-2.1c-15.6-0.1-28.2-13-28-28.6l0.1-10.3c0.2-15.6 13.1-28.3 28.8-28.2l326.3 2.1c15.6 0.1 28.2 12.9 28 28.5" fill="#a04637" fill-rule="evenodd"/>
    <path d="m13806 11798-0.1 6c-0.1 9-7.5 16.3-16.5 16.3l-350.4-2.3c-9-0.1-16.3-7.5-16.2-16.5l0.1-5.9c0.1-9.1 7.6-16.4 16.6-16.3l350.3 2.2c9 0.1 16.3 7.5 16.2 16.5" fill="#ca5b2c" fill-rule="evenodd"/>
    <path d="m13795 11799v2.4c-0.1 3.6-3.1 6.6-6.7 6.5l-348.8-2.2c-3.6 0-6.5-3-6.5-6.6l0.1-2.4c0-3.6 3-6.5 6.6-6.5l348.8 2.3c3.6 0 6.5 2.9 6.5 6.5" fill="#cd7f4b" fill-rule="evenodd"/>
    <path d="m13920 12733-6.8 7.8c-10.2 11.8-28.4 13.3-40.4 3.3l-472.9-395.2c-12-10.1-13.4-27.9-3.2-39.7l6.8-7.8c10.2-11.8 28.4-13.3 40.4-3.3l472.9 395.3c12 10 13.4 27.8 3.2 39.6" fill="#a04637" fill-rule="evenodd"/>
    <path d="m13919 12735-3.9 4.5c-5.9 6.8-16.3 7.6-23.3 1.9l-491.3-410.7c-6.9-5.7-7.8-16-1.9-22.9l3.9-4.5c5.9-6.8 16.4-7.6 23.3-1.8l491.4 410.6c6.9 5.8 7.7 16.1 1.8 22.9" fill="#ca5b2c" fill-rule="evenodd"/>
    <path d="m13903 12724-1.6 1.8c-2.3 2.7-6.5 3.1-9.3 0.8l-477.9-399.4c-2.7-2.3-3.1-6.4-0.7-9.2l1.6-1.8c2.3-2.7 6.5-3 9.3-0.7l477.8 399.3c2.8 2.4 3.1 6.5 0.8 9.2" fill="#cd7f4b" fill-rule="evenodd"/>
    <path d="m13878 12784-6.8 7.8c-10.2 11.8-28.3 13.3-40.3 3.3l-472.9-395.2c-12-10.1-13.5-27.9-3.2-39.7l6.7-7.8c10.2-11.8 28.4-13.3 40.4-3.3l472.9 395.3c12 10 13.4 27.8 3.2 39.6" fill="#a04637" fill-rule="evenodd"/>
    <path d="m13876 12786-3.9 4.5c-5.9 6.8-16.4 7.6-23.3 1.9l-491.4-410.7c-6.9-5.8-7.7-16.1-1.8-22.9l3.9-4.5c5.9-6.8 16.4-7.6 23.3-1.8l491.3 410.6c7 5.8 7.8 16.1 1.9 22.9" fill="#ca5b2c" fill-rule="evenodd"/>
    <path d="m13861 12775-1.5 1.8c-2.4 2.7-6.6 3.1-9.4 0.7l-477.8-399.3c-2.8-2.3-3.1-6.5-0.8-9.2l1.6-1.8c2.4-2.7 6.6-3 9.3-0.7l477.9 399.3c2.8 2.3 3.1 6.5 0.7 9.2" fill="#cd7f4b" fill-rule="evenodd"/>
    <path d="m13836 12834-6.7 7.8c-10.2 11.8-28.4 13.2-40.4 3.2l-472.9-395.2c-12-10-13.4-27.9-3.2-39.7l6.8-7.8c10.2-11.8 28.4-13.2 40.3-3.2l473 395.2c11.9 10 13.4 27.9 3.1 39.7" fill="#a04637" fill-rule="evenodd"/>
    <path d="m13835 12836-3.9 4.5c-5.9 6.8-16.4 7.7-23.3 1.9l-491.3-410.6c-6.9-5.8-7.8-16.1-1.9-22.9l3.9-4.5c5.9-6.8 16.4-7.7 23.3-1.9l491.4 410.6c6.9 5.8 7.7 16.1 1.8 22.9" fill="#ca5b2c" fill-rule="evenodd"/>
    <path d="m13820 12825-1.6 1.8c-2.3 2.8-6.5 3.1-9.3 0.8l-477.9-399.4c-2.7-2.3-3.1-6.4-0.7-9.1l1.5-1.8c2.4-2.8 6.6-3.1 9.4-0.8l477.8 399.4c2.8 2.3 3.1 6.4 0.8 9.1" fill="#cd7f4b" fill-rule="evenodd"/>
    <path d="m13791 12282 6.7 7.8c10.2 11.9 8.9 30.1-2.8 40.4l-460.8 409.2c-11.7 10.4-29.6 9.2-39.7-2.7l-6.8-7.8c-10.1-11.9-8.9-30.1 2.8-40.4l460.9-409.2c11.7-10.4 29.5-9.2 39.7 2.7" fill="#a04637" fill-rule="evenodd"/>
    <path d="m13793 12284 3.9 4.6c5.8 6.8 5.1 17.3-1.6 23.3l-478.9 425.1c-6.7 6-17 5.3-22.9-1.5l-3.8-4.6c-5.9-6.8-5.2-17.3 1.6-23.3l478.8-425.1c6.7-6 17-5.3 22.9 1.5" fill="#ca5b2c" fill-rule="evenodd"/>
    <path d="m13780 12298 1.5 1.8c2.3 2.7 2.1 6.9-0.6 9.3l-465.7 413.5c-2.7 2.4-6.9 2.1-9.2-0.7l-1.6-1.8c-2.3-2.7-2-6.9 0.7-9.3l465.7-413.5c2.7-2.4 6.8-2.1 9.2 0.7" fill="#cd7f4b" fill-rule="evenodd"/>
    <path d="m13836 12332 6.7 7.8c10.2 11.9 9 30-2.7 40.4l-460.9 409.2c-11.7 10.4-29.6 9.2-39.7-2.7l-6.7-7.9c-10.2-11.8-8.9-30 2.7-40.4l460.9-409.2c11.7-10.3 29.6-9.1 39.7 2.8" fill="#a04637" fill-rule="evenodd"/>
    <path d="m13837 12334 3.9 4.5c5.9 6.9 5.2 17.4-1.6 23.4l-478.8 425.1c-6.8 6-17.1 5.3-22.9-1.6l-3.9-4.5c-5.9-6.8-5.1-17.3 1.6-23.3l478.8-425.1c6.8-6 17.1-5.3 22.9 1.5" fill="#ca5b2c" fill-rule="evenodd"/>
    <path d="m13824 12347 1.5 1.8c2.4 2.8 2.1 7-0.6 9.4l-465.7 413.4c-2.7 2.4-6.8 2.2-9.2-0.6l-1.5-1.8c-2.4-2.7-2.1-6.9 0.6-9.3l465.7-413.5c2.7-2.4 6.9-2.1 9.2 0.6" fill="#cd7f4b" fill-rule="evenodd"/>
    <path d="m13879 12380 6.7 7.9c10.2 11.8 8.9 30-2.7 40.4l-460.9 409.2c-11.7 10.3-29.6 9.1-39.7-2.7l-6.7-7.9c-10.2-11.8-8.9-30 2.7-40.4l460.9-409.2c11.7-10.3 29.6-9.1 39.7 2.7" fill="#a04637" fill-rule="evenodd"/>
    <path d="m13880 12382 3.9 4.5c5.9 6.9 5.2 17.3-1.6 23.3l-478.8 425.2c-6.8 6-17.1 5.2-22.9-1.6l-3.9-4.5c-5.9-6.9-5.2-17.4 1.6-23.3l478.8-425.2c6.8-6 17.1-5.3 22.9 1.6" fill="#ca5b2c" fill-rule="evenodd"/>
    <path d="m13868 12396 1.5 1.8c2.4 2.8 2.1 7-0.6 9.3l-465.7 413.5c-2.7 2.4-6.8 2.1-9.2-0.6l-1.5-1.8c-2.4-2.8-2.1-6.9 0.6-9.3l465.7-413.5c2.7-2.4 6.8-2.1 9.2 0.6" fill="#cd7f4b" fill-rule="evenodd"/>
    <path d="m13056 1513.7c26.1 0 47.4 21.3 47.4 47.41 0 26.1-21.3 47.4-47.4 47.4s-47.4-21.3-47.4-47.4c0-26.11 21.3-47.41 47.4-47.41" fill="#fde6c4" fill-rule="evenodd"/>
    <path d="m13064 1523.4c23.5 0 42.6 19.12 42.6 42.56 0 23.45-19.1 42.57-42.6 42.57-23.4 0-42.5-19.12-42.5-42.57 0-23.44 19.1-42.56 42.5-42.56" fill="#76392e" fill-rule="evenodd"/>
    <path d="m13522 1780.6c13.7 7.47 18.8 24.64 11.3 38.36-7.5 13.71-24.7 18.78-38.4 11.31l-434.6-237.09c-13.7-7.46-18.8-24.64-11.3-38.35 7.4-13.72 24.6-18.78 38.3-11.31l434.7 237.08" fill="#a04637"/>
    <path d="m13445 1603.7c2.7 102.48 4.7 204.74 6.1 306.77 10.1-3.99 23.3-8.42 42.9-10.83 61.6-7.58 142.7-28.66 202.9-8.42 21.7 2.1 41.9 9.44 60.2 18.2 1.1-97.56 2.8-195.23 5-293-46.6 22.32-126.2 50.08-151.1 49.01-109.3-4.67-137.6-45.27-166-61.73" fill="#cd7f4b" fill-rule="evenodd"/>
    <path d="m13397 620.8c9.7 151.36 26.1 449.58 32.9 599.92 28.8-63.94 146.8-117.58 173.7-113.09 65.1 10.85 117.7 149.54 172.2 143.85 6.2-148.77 21.2-450.39 30.3-599.72-40.4 71.113-140.9 111-198.8 126.62-60.1 16.234-152.8-113.88-210.3-157.58" fill="#cd7f4b" fill-rule="evenodd"/>
    <path d="m13022 1046.1c-90.6-1.07-181-1.55-271.2-1.48 10.3-38.08 27-122.84-1.7-207.16-4-11.77-12.6-22.539-22.2-32.684 90 0.317 180.1 0.114 270.3-0.621-4.7 45.422-10.5 127.94-2.3 168.31 10.2 50.277 15.7 50.677 27.1 73.637" fill="#cd7f4b" fill-rule="evenodd"/>
    <path d="m13888 1096.8c-195.9-10.37-390.8-17.89-584.7-22.69 23.7-41.52 65.1-60.59 106.2-87.282 59.5-38.602 6.2-61.27-37.5-93.735-18.6-13.832-58.1-40.328-71.8-70.402 210.2-4.566 421-12.211 632.5-23.324-7.1 50.215-82.9 112.66-120.7 131.39-12.9 6.422-50.1 28.926-37.6 46.457 16.4 23.01 38.4 48.82 60.4 70.88 13.5 13.46 40.5 30.81 53.2 48.71" fill="#cd7f4b" fill-rule="evenodd"/>
    <path d="m12948 758.82-10.4 0.114c-15.6 0.164-28.3 13.078-28.1 28.679l2.1 263.88c0.2 15.62 13.1 28.24 28.7 28.08l10.3-0.11c15.6-0.17 28.3-13.08 28.1-28.69l-2.1-263.87c-0.2-15.613-13-28.254-28.6-28.082" fill="#a04637" fill-rule="evenodd"/>
    <path d="m12946 758.84-6 0.066c-9 0.094-16.3 7.551-16.2 16.547l2.3 287.9c0.1 9.01 7.5 16.3 16.5 16.19l6-0.05c9-0.1 16.3-7.55 16.2-16.56l-2.3-287.89c-0.1-9.008-7.5-16.301-16.5-16.203" fill="#ca5b2c" fill-rule="evenodd"/>
    <path d="m12944 767.73-2.4 0.02c-3.6 0.039-6.6 3.023-6.5 6.617l2.4 289.81c0 3.6 3 6.52 6.6 6.48l2.3-0.03c3.6-0.04 6.6-3.01 6.5-6.61l-2.3-289.82c-0.1-3.601-3-6.508-6.6-6.473" fill="#cd7f4b" fill-rule="evenodd"/>
    <path d="m12881 758.82-10.3 0.114c-15.7 0.164-28.3 13.078-28.2 28.679l2.2 263.88c0.1 15.62 13 28.24 28.6 28.08l10.3-0.11c15.6-0.17 28.3-13.08 28.2-28.69l-2.2-263.87c-0.1-15.613-13-28.254-28.6-28.082" fill="#a04637" fill-rule="evenodd"/>
    <path d="m12879 758.84-6 0.066c-9 0.094-16.3 7.551-16.2 16.547l2.4 287.9c0 9.01 7.5 16.3 16.5 16.19l5.9-0.05c9-0.1 16.3-7.55 16.3-16.56l-2.4-287.89c-0.1-9.008-7.5-16.301-16.5-16.203" fill="#ca5b2c" fill-rule="evenodd"/>
    <path d="m12877 767.73-2.4 0.02c-3.6 0.039-6.5 3.023-6.5 6.617l2.4 289.81c0 3.6 3 6.52 6.6 6.48l2.4-0.03c3.6-0.04 6.5-3.01 6.5-6.61l-2.4-289.82c0-3.601-3-6.508-6.6-6.473" fill="#cd7f4b" fill-rule="evenodd"/>
    <path d="m12817 758.82-10.3 0.114c-15.6 0.164-28.3 13.078-28.2 28.679l2.2 263.88c0.1 15.62 13 28.24 28.6 28.08l10.3-0.11c15.7-0.17 28.3-13.08 28.2-28.69l-2.2-263.87c-0.1-15.613-13-28.254-28.6-28.082" fill="#a04637" fill-rule="evenodd"/>
    <path d="m12814 758.84-5.9 0.066c-9 0.094-16.3 7.551-16.3 16.547l2.4 287.9c0.1 9.01 7.5 16.3 16.5 16.19l6-0.05c9-0.1 16.3-7.55 16.2-16.56l-2.4-287.89c0-9.008-7.5-16.301-16.5-16.203" fill="#ca5b2c" fill-rule="evenodd"/>
    <path d="m12813 767.73-2.4 0.02c-3.6 0.039-6.5 3.023-6.5 6.617l2.4 289.81c0 3.6 3 6.52 6.6 6.48l2.4-0.03c3.6-0.04 6.5-3.01 6.5-6.61l-2.4-289.82c0-3.601-3-6.508-6.6-6.473" fill="#cd7f4b" fill-rule="evenodd"/>
    <path d="m13801 1842.9-0.1-10.32c-0.2-15.61-13.1-28.3-28.8-28.21l-326.3 2.11c-15.6 0.1-28.2 12.96-28 28.57l0.1 10.31c0.2 15.62 13.1 28.31 28.7 28.21l326.4-2.11c15.6-0.1 28.2-12.95 28-28.56" fill="#a04637" fill-rule="evenodd"/>
    <path d="m13801 1840.7-0.1-5.97c-0.1-9-7.6-16.32-16.6-16.26l-350.3 2.26c-9 0.06-16.3 7.48-16.2 16.48l0.1 5.96c0.1 9 7.5 16.32 16.5 16.26l350.4-2.26c9-0.06 16.3-7.47 16.2-16.47" fill="#ca5b2c" fill-rule="evenodd"/>
    <path d="m13790 1839-0.1-2.38c0-3.6-3-6.53-6.6-6.5l-348.8 2.25c-3.6 0.02-6.5 2.98-6.5 6.59v2.38c0.1 3.6 3.1 6.53 6.7 6.51l348.8-2.25c3.6-0.03 6.5-2.99 6.5-6.6" fill="#cd7f4b" fill-rule="evenodd"/>
    <path d="m13801 1776.3-0.1-10.32c-0.2-15.61-13.1-28.3-28.7-28.2l-326.4 2.1c-15.6 0.11-28.2 12.95-28 28.57l0.1 10.32c0.2 15.62 13.2 28.3 28.8 28.2l326.3-2.1c15.6-0.11 28.2-12.95 28-28.57" fill="#a04637" fill-rule="evenodd"/>
    <path d="m13801 1774.1v-5.96c-0.2-9.01-7.6-16.33-16.6-16.27l-350.4 2.26c-9 0.06-16.3 7.47-16.2 16.48l0.1 5.96c0.1 9.01 7.6 16.33 16.6 16.27l350.4-2.27c9-0.06 16.2-7.47 16.1-16.47" fill="#ca5b2c" fill-rule="evenodd"/>
    <path d="m13790 1772.4v-2.39c-0.1-3.6-3-6.53-6.7-6.5l-348.8 2.25c-3.6 0.02-6.5 2.98-6.4 6.59v2.38c0 3.6 3 6.53 6.6 6.51l348.8-2.25c3.6-0.03 6.5-2.98 6.5-6.59" fill="#cd7f4b" fill-rule="evenodd"/>
    <path d="m13801 1711.7-0.1-10.31c-0.2-15.61-13.2-28.3-28.8-28.2l-326.3 2.1c-15.6 0.1-28.2 12.96-28.1 28.57l0.2 10.32c0.2 15.62 13.1 28.3 28.7 28.2l326.4-2.1c15.6-0.1 28.2-12.96 28-28.58" fill="#a04637" fill-rule="evenodd"/>
    <path d="m13801 1709.6-0.1-5.96c-0.1-9-7.6-16.32-16.6-16.27l-350.4 2.26c-9 0.06-16.2 7.47-16.1 16.47v5.97c0.2 9.01 7.6 16.33 16.6 16.26l350.4-2.26c9-0.06 16.3-7.47 16.2-16.47" fill="#ca5b2c" fill-rule="evenodd"/>
    <path d="m13790 1707.8v-2.38c0-3.61-3-6.54-6.6-6.51l-348.8 2.25c-3.6 0.02-6.6 2.99-6.5 6.59v2.38c0.1 3.61 3 6.53 6.7 6.51l348.8-2.25c3.6-0.03 6.5-2.99 6.4-6.59" fill="#cd7f4b" fill-rule="evenodd"/>
    <path d="m13916 774.23-6.7-7.796c-10.3-11.801-28.4-13.27-40.4-3.25l-472.9 395.22c-12 10.02-13.5 27.86-3.2 39.66l6.7 7.81c10.3 11.8 28.4 13.26 40.4 3.24l472.9-395.22c12-10.015 13.4-27.871 3.2-39.668" fill="#a04637" fill-rule="evenodd"/>
    <path d="m13914 772.58-3.9-4.496c-5.9-6.805-16.4-7.656-23.3-1.879l-491.4 410.63c-6.9 5.78-7.7 16.07-1.8 22.88l3.9 4.51c5.9 6.81 16.4 7.65 23.3 1.86l491.3-410.62c7-5.785 7.8-16.071 1.9-22.887" fill="#ca5b2c" fill-rule="evenodd"/>
    <path d="m13899 783.18-1.5-1.805c-2.4-2.726-6.6-3.058-9.3-0.754l-477.9 399.37c-2.8 2.31-3.1 6.42-0.8 9.15l1.6 1.8c2.4 2.73 6.6 3.06 9.3 0.76l477.9-399.38c2.8-2.316 3.1-6.426 0.7-9.148" fill="#cd7f4b" fill-rule="evenodd"/>
    <path d="m13873 722.95-6.8-7.808c-10.2-11.801-28.4-13.258-40.4-3.239l-472.9 395.22c-12 10.01-13.4 27.85-3.2 39.65l6.8 7.81c10.2 11.8 28.4 13.25 40.4 3.25l472.9-395.23c12-10.019 13.4-27.859 3.2-39.66" fill="#a04637" fill-rule="evenodd"/>
    <path d="m13872 721.29-3.9-4.496c-5.9-6.809-16.3-7.656-23.3-1.871l-491.3 410.62c-6.9 5.78-7.8 16.08-1.8 22.88l3.8 4.51c5.9 6.8 16.4 7.65 23.3 1.88l491.4-410.64c6.9-5.778 7.7-16.071 1.8-22.887" fill="#ca5b2c" fill-rule="evenodd"/>
    <path d="m13856 731.88-1.6-1.801c-2.3-2.727-6.5-3.059-9.3-0.754l-477.9 399.37c-2.7 2.32-3.1 6.43-0.7 9.15l1.6 1.8c2.3 2.73 6.5 3.07 9.3 0.75l477.8-399.36c2.8-2.308 3.1-6.426 0.8-9.152" fill="#cd7f4b" fill-rule="evenodd"/>
    <path d="m13832 673.22-6.8-7.805c-10.2-11.801-28.4-13.262-40.3-3.242l-473 395.22c-11.9 10.01-13.4 27.86-3.1 39.66l6.7 7.8c10.2 11.8 28.4 13.27 40.4 3.25l472.9-395.22c12-10.02 13.4-27.863 3.2-39.664" fill="#a04637" fill-rule="evenodd"/>
    <path d="m13830 671.57-3.9-4.507c-5.9-6.805-16.4-7.645-23.3-1.868l-491.4 410.64c-6.9 5.76-7.7 16.06-1.8 22.87l3.9 4.5c5.9 6.81 16.4 7.66 23.3 1.88l491.3-410.64c6.9-5.773 7.8-16.07 1.9-22.875" fill="#ca5b2c" fill-rule="evenodd"/>
    <path d="m13815 682.15-1.5-1.804c-2.4-2.715-6.6-3.059-9.4-0.742l-477.8 399.36c-2.8 2.32-3.1 6.43-0.8 9.16l1.6 1.79c2.3 2.73 6.5 3.07 9.3 0.76l477.9-399.36c2.7-2.313 3.1-6.43 0.7-9.157" fill="#cd7f4b" fill-rule="evenodd"/>
    <path d="m13787 1224.7 6.8-7.84c10.1-11.86 8.9-30.05-2.8-40.42l-460.9-409.18c-11.7-10.371-29.5-9.152-39.7 2.715l-6.7 7.836c-10.2 11.859-8.9 30.043 2.8 40.414l460.8 409.19c11.7 10.37 29.6 9.15 39.7-2.71" fill="#a04637" fill-rule="evenodd"/>
    <path d="m13788 1223 3.8-4.53c5.9-6.85 5.2-17.33-1.6-23.32l-478.8-425.14c-6.7-5.977-17.1-5.27-22.9 1.566l-3.9 4.528c-5.8 6.843-5.1 17.336 1.6 23.312l478.9 425.15c6.7 5.97 17 5.28 22.9-1.56" fill="#ca5b2c" fill-rule="evenodd"/>
    <path d="m13775 1209.3 1.6-1.81c2.3-2.74 2-6.93-0.7-9.33l-465.7-413.48c-2.7-2.394-6.8-2.105-9.2 0.629l-1.5 1.813c-2.3 2.742-2.1 6.929 0.6 9.32l465.7 413.49c2.7 2.39 6.9 2.1 9.2-0.63" fill="#cd7f4b" fill-rule="evenodd"/>
    <path d="m13831 1175.1 6.7-7.84c10.2-11.85 8.9-30.04-2.8-40.41l-460.9-409.19c-11.6-10.371-29.5-9.152-39.7 2.707l-6.7 7.844c-10.1 11.859-8.9 30.043 2.8 40.414l460.9 409.18c11.7 10.38 29.5 9.16 39.7-2.71" fill="#a04637" fill-rule="evenodd"/>
    <path d="m13832 1173.5 3.9-4.53c5.8-6.84 5.1-17.33-1.6-23.31l-478.9-425.15c-6.7-5.985-17-5.282-22.9 1.566l-3.8 4.527c-5.9 6.844-5.2 17.329 1.5 23.313l478.9 425.14c6.7 5.98 17 5.27 22.9-1.56" fill="#ca5b2c" fill-rule="evenodd"/>
    <path d="m13820 1159.7 1.5-1.81c2.3-2.73 2.1-6.94-0.6-9.33l-465.8-413.48c-2.7-2.395-6.8-2.105-9.1 0.629l-1.6 1.809c-2.3 2.738-2 6.933 0.7 9.324l465.7 413.47c2.7 2.39 6.8 2.12 9.2-0.62" fill="#cd7f4b" fill-rule="evenodd"/>
    <path d="m13874 1127 6.7-7.84c10.1-11.86 8.9-30.05-2.8-40.42l-460.9-409.19c-11.6-10.371-29.5-9.153-39.7 2.719l-6.7 7.843c-10.1 11.856-8.9 30.032 2.8 40.403l460.9 409.19c11.7 10.37 29.5 9.15 39.7-2.71" fill="#a04637" fill-rule="evenodd"/>
    <path d="m13876 1125.4 3.9-4.52c5.8-6.85 5.1-17.34-1.6-23.32l-478.9-425.14c-6.7-5.977-17-5.27-22.9 1.566l-3.9 4.527c-5.8 6.844-5.1 17.336 1.6 23.313l478.9 425.15c6.7 5.98 17 5.28 22.9-1.57" fill="#ca5b2c" fill-rule="evenodd"/>
    <path d="m13863 1111.7 1.6-1.8c2.3-2.74 2-6.93-0.6-9.33l-465.8-413.48c-2.7-2.391-6.8-2.114-9.1 0.629l-1.6 1.8c-2.3 2.746-2 6.942 0.7 9.332l465.7 413.47c2.7 2.4 6.8 2.11 9.1-0.63" fill="#cd7f4b" fill-rule="evenodd"/>
    <path d="m13446 6397.3c2.6 102.48 4.6 204.73 6 306.77 9.9-3.99 22.9-8.42 42.1-10.84 60.4-7.57 140.1-28.64 199.1-8.41 21.3 2.11 41.2 9.45 59.1 18.21 1.1-97.56 2.7-195.23 4.9-293-45.7 22.32-123.9 50.07-148.2 49.01-107.3-4.67-135.1-45.27-163-61.74" fill="#cd7f4b" fill-rule="evenodd"/>
    <path d="m13795 6636.4-0.1-10.32c-0.2-15.62-13.1-28.29-28.7-28.2l-319.3 2.1c-15.6 0.1-28.2 12.96-28 28.58l0.1 10.31c0.2 15.61 13.1 28.3 28.7 28.19l319.3-2.09c15.6-0.1 28.2-12.96 28-28.57" fill="#a04637" fill-rule="evenodd"/>
    <path d="m13795 6634.3-0.1-5.95c-0.1-9.01-7.6-16.33-16.6-16.27l-343.2 2.26c-9 0.05-16.3 7.47-16.2 16.48l0.1 5.95c0.1 9 7.6 16.32 16.6 16.27l343.2-2.25c9-0.07 16.3-7.49 16.2-16.49" fill="#ca5b2c" fill-rule="evenodd"/>
    <path d="m13785 6632.6-0.1-2.38c0-3.6-3-6.53-6.6-6.5l-342.1 2.24c-3.6 0.02-6.5 2.99-6.5 6.59l0.1 2.39c0 3.6 3 6.52 6.6 6.5l342.1-2.25c3.6-0.02 6.5-2.99 6.5-6.59" fill="#cd7f4b" fill-rule="evenodd"/>
    <path d="m13795 6569.9-0.1-10.32c-0.2-15.6-13.1-28.29-28.7-28.19l-319.2 2.09c-15.6 0.1-28.2 12.96-28.1 28.58l0.2 10.32c0.1 15.61 13.1 28.29 28.7 28.19l319.2-2.09c15.6-0.11 28.2-12.97 28-28.58" fill="#a04637" fill-rule="evenodd"/>
    <path d="m13795 6567.7v-5.96c-0.2-9.01-7.6-16.33-16.6-16.27l-343.3 2.26c-9 0.06-16.2 7.47-16.1 16.48v5.95c0.1 9.01 7.6 16.32 16.6 16.27l343.2-2.25c9.1-0.07 16.3-7.48 16.2-16.48" fill="#ca5b2c" fill-rule="evenodd"/>
    <path d="m13785 6566v-2.38c-0.1-3.61-3-6.53-6.7-6.5l-342.1 2.24c-3.6 0.03-6.5 2.99-6.4 6.59v2.39c0.1 3.6 3 6.53 6.6 6.51l342.1-2.25c3.6-0.03 6.5-3 6.5-6.6" fill="#cd7f4b" fill-rule="evenodd"/>
    <path d="m13795 6505.3-0.1-10.31c-0.2-15.61-13.2-28.3-28.8-28.2l-319.2 2.09c-15.6 0.11-28.2 12.97-28 28.58l0.1 10.32c0.2 15.61 13.1 28.29 28.7 28.19l319.2-2.09c15.7-0.11 28.3-12.96 28.1-28.58" fill="#a04637" fill-rule="evenodd"/>
    <path d="m13795 6503.1-0.1-5.96c-0.1-9-7.6-16.32-16.6-16.27l-343.2 2.26c-9 0.06-16.3 7.47-16.2 16.48l0.1 5.96c0.1 9 7.5 16.32 16.5 16.26l343.3-2.26c9-0.06 16.3-7.47 16.2-16.47" fill="#ca5b2c" fill-rule="evenodd"/>
    <path d="m13785 6501.4v-2.38c0-3.6-3-6.53-6.6-6.51l-342.1 2.25c-3.6 0.03-6.5 2.99-6.5 6.6v2.38c0.1 3.6 3.1 6.53 6.7 6.5l342.1-2.24c3.6-0.03 6.5-2.99 6.4-6.6" fill="#cd7f4b" fill-rule="evenodd"/>
    <path d="m12968 6751.2c-25.8 4.35-43.2 28.8-38.9 54.62 4.4 25.81 28.8 43.22 54.7 38.87 25.8-4.34 43.2-28.79 38.8-54.6-4.3-25.82-28.8-43.22-54.6-38.89" fill="#fde6c4" fill-rule="evenodd"/>
    <path d="m12977 6759.5c-23.2 3.88-38.9 25.84-35 49.03 3.9 23.17 25.9 38.81 49.1 34.9 23.2-3.9 38.8-25.85 34.9-49.03s-25.9-38.81-49-34.9" fill="#76392e" fill-rule="evenodd"/>
    <path d="m13472 6937.1c14.8 5.1 22.6 21.19 17.6 35.96-5.1 14.76-21.2 22.61-36 17.51l-468-161.68c-14.7-5.09-22.6-21.19-17.5-35.95s21.2-22.61 36-17.52l467.9 161.68" fill="#a04637"/>
    <path d="m13452 6792c2.6 102.48 4.6 204.74 5.9 306.77 9.8-3.98 22.4-8.41 41.3-10.84 59.3-7.57 137.5-28.63 195.4-8.41 20.9 2.11 40.4 9.45 58 18.22 1.1-97.57 2.6-195.24 4.7-293.02-44.8 22.33-121.5 50.08-145.4 49.02-105.2-4.68-132.5-45.27-159.9-61.74" fill="#cd7f4b" fill-rule="evenodd"/>
    <path d="m13794 7031.2-0.2-10.32c-0.1-15.61-13.1-28.3-28.7-28.19l-312.1 2.08c-15.6 0.12-28.3 12.97-28.1 28.58l0.1 10.33c0.2 15.61 13.1 28.29 28.8 28.19l312.1-2.09c15.6-0.11 28.2-12.97 28.1-28.58" fill="#a04637" fill-rule="evenodd"/>
    <path d="m13794 7029v-5.95c-0.1-9.01-7.6-16.33-16.6-16.26l-336.2 2.25c-9 0.05-16.3 7.47-16.2 16.48l0.1 5.95c0.1 9.01 7.6 16.33 16.6 16.26l336.2-2.25c9-0.06 16.2-7.47 16.1-16.48" fill="#ca5b2c" fill-rule="evenodd"/>
    <path d="m13784 7027.3v-2.38c-0.1-3.6-3-6.53-6.6-6.51l-335.5 2.25c-3.6 0.02-6.5 2.99-6.4 6.59v2.39c0 3.6 3 6.53 6.6 6.51l335.4-2.25c3.6-0.02 6.6-2.99 6.5-6.6" fill="#cd7f4b" fill-rule="evenodd"/>
    <path d="m13794 6964.6-0.1-10.32c-0.2-15.62-13.1-28.3-28.7-28.2l-312.2 2.09c-15.6 0.11-28.2 12.96-28 28.57l0.1 10.32c0.2 15.62 13.1 28.3 28.7 28.2l312.2-2.09c15.6-0.11 28.2-12.96 28-28.57" fill="#a04637" fill-rule="evenodd"/>
    <path d="m13794 6962.4-0.1-5.96c-0.1-9.01-7.6-16.33-16.6-16.26l-336.1 2.25c-9 0.05-16.3 7.47-16.2 16.48v5.95c0.2 9 7.6 16.32 16.6 16.27l336.2-2.25c9-0.06 16.3-7.48 16.2-16.48" fill="#ca5b2c" fill-rule="evenodd"/>
    <path d="m13784 6960.7-0.1-2.38c0-3.6-3-6.53-6.6-6.5l-335.4 2.24c-3.6 0.02-6.5 2.99-6.5 6.59v2.39c0.1 3.6 3.1 6.53 6.7 6.5l335.4-2.24c3.6-0.02 6.5-2.99 6.5-6.6" fill="#cd7f4b" fill-rule="evenodd"/>
    <path d="m13794 6900-0.1-10.32c-0.2-15.62-13.1-28.3-28.7-28.2l-312.2 2.1c-15.6 0.09-28.2 12.95-28 28.57l0.1 10.32c0.2 15.61 13.1 28.29 28.7 28.19l312.2-2.09c15.6-0.1 28.2-12.96 28-28.57" fill="#a04637" fill-rule="evenodd"/>
    <path d="m13794 6897.9-0.1-5.96c-0.1-9.01-7.5-16.32-16.5-16.27l-336.2 2.26c-9 0.05-16.3 7.48-16.2 16.48l0.1 5.96c0.1 9 7.6 16.32 16.6 16.25l336.1-2.25c9-0.05 16.3-7.47 16.2-16.47" fill="#ca5b2c" fill-rule="evenodd"/>
    <path d="m13784 6896.1v-2.38c-0.1-3.6-3.1-6.53-6.7-6.5l-335.4 2.24c-3.6 0.03-6.5 3-6.5 6.59l0.1 2.39c0 3.6 3 6.52 6.6 6.5l335.4-2.24c3.6-0.03 6.5-2.99 6.5-6.6" fill="#cd7f4b" fill-rule="evenodd"/>
    <path d="m5380.9 3347.8c201.03-89.93 504.16-130.32 671.91-123.08 68.28 7.9 57.3-10.89-0.64-10.8-66.83-8.53-460.21-26.12-485.2-40.94 121.3-51.37 364.87 2.03 503.7 2.03 150.94-0.01-689.47-67.78-712.14-62.14-170.36 42.33 276.95-219.27 443.61-222.86-54.05-3.59-162.75 3.43-200.98-50.18 18.5-147.76 514.54-149.69 569.2-147.72-0.01-0.21 73.7 7.62 82.79 8.73 0 0 3.71-2.83 5.3-5.26 0 0-86.83-9.14-86.68-9.85-122.44-12.66-391.09-11.96-492.2-43.02 124.31-33.18 314.48-22.57 434.01-20.16-659.16-45.93 29.04-115.02 149.47-125.76-189.75-59.9-64.2 63.69-508.49-49.6 14.71-20.16 321.16-59.49 345.94-55.25-272.8-146.23-722.92-198.68-1072.2-267.99l-0.4 572.84 280.2 891.08c209.11-45.11 477.52-110.2 691.43-121.98 56.09 1.37 125.53-4.98 181.75-2.41-56.06-4.42-125.5-11.11-181.68-13.14-71.87 2.07-604.34 71.22-621.24 24.46 64.43-77.49 267.45-141.07 337.6-168.17-80.7 12.69-228.45 37.25-335.11 41.17zm875.09-646.48c1.63-1.8 6.05-1.72 5.34-5.25 3.35 1.62 10.06 4.79 10.06 4.79 22.77 10.48-18.44-0.1-15.4 0.46" fill="#f0b066" fill-rule="evenodd"/>
    <path d="m9999.5 11776c-120.73-211.1-205.01-516.9-221.24-682.2-1.51-66.7-19.28-58.3-11-0.8 0.67 65.1 38.09 452.8 26.41 475.7-69.9-127-49.41-361.5-68.99-499.1-21.31-149.7 27.65 674.6 36.64 697.8 67.52 174.5-264.34-303.2-291.54-468.9 3.94 53.1 26.5 161.8-23.18 192.7-154.42-37.7-226.17-529.7-232.07-583.7-22.37-193.1 20.08 6.2-6.75-2.2 4.26 119.7 42.89 386.2 25.24 482.3-51.62-127.5-67.55-314.7-81.93-432.9 26.44 384.2-42.24 372.3-99.9 186.6-34.52-111.1-53.44-396.8-78.1-384.2-22.23 11.4 78.35 284.1 48.5 530.6-11.91-9-230.06-1012.7-338.64 657.2l697.57 95.8 875.85-161.1c-75.8-213.3-180.6-487.9-222.8-701.5-6.6-55.4-22.9-125.1-28.2-180.5 3.4 55 6.3 123 12.2 178.4 12.2 71.5 158.4 608.5 112.7 619.1-88.6-74-182.61-283.6-220.34-356.7 24.43 81.7 70.49 231.4 89.57 337.6" fill="#f0b066" fill-rule="evenodd"/>
    <path d="m7737.9 11776c105.4-211.1 178.97-516.9 193.13-682.2 1.33-66.7 16.83-58.3 9.6-0.8-0.58 65.1-33.24 452.8-23.04 475.7 61.01-127 43.12-361.5 60.22-499.1 18.59-149.7-24.14 674.6-31.99 697.8-58.94 174.5 230.74-303.2 254.5-468.9-3.44 53.1-23.13 161.8 20.24 192.7 134.79-37.7 179.26-422.9 184.4-476.9 0.02-0.2 23.42-108.8 24.08-109-3.74 119.7-37.44 386.2-22.05 482.3 45.08-127.5 58.98-314.7 71.53-432.9-39.9 646.1 60.31 134.9 104.47-33.1-0.01 0 4.7 200.2 8.59 366.1 19.88-17.2 92.89-326.2 92.15-350.2 97.53 251.3 89.13 690.7 108.27 1027.9l-513.76 75.3-764.59-161.1c66.21-213.3 157.63-487.9 194.55-701.5 5.68-55.4 19.93-125.1 24.55-180.5-2.94 55-5.5 123-10.6 178.4-10.71 71.5-138.3 608.5-98.45 619.1 77.43-74 159.46-283.6 192.4-356.7-21.33 81.7-61.54 231.4-78.2 337.6" fill="#f0b066" fill-rule="evenodd"/>
    <path d="m12804 3682.9c-279-116.88-689-207.22-912.7-230.48-90.5-5-77.8-20.02-0.3-9.63 88.5 4.17 612.9 58.18 644.7 49.26-168-67.93-488-63-673.8-87.67-201.9-26.82 915.1 61.32 946 70.44 232.7 68.49-394.8-247.13-618.2-279.99 72 6.37 218.2 32.03 263.4-9.57-41.1-136.66-561.2-202.32-634.2-210.44-0.3-0.03-146-29.37-146.3-30.04 162.4 10.32 522 58.69 653.8 48.62-170-52.04-423.3-76.25-582.9-95.31 874.9 75.49 187.9-52.78-37.2-106.13 0 0 272.4 6.35 498.2 11.63-21.9-20.81-436.3-110.76-469-111.35 9.3-2.23 18.9-4.51 28.6-6.82-193-35.01-509.7-26.95-57.1-38.52 139.5-3.57 150.9 15.66 294.4-16.04-105.7-12.46-402.1-60.46-386-61.11 60.9-2.44 491.5 14.55 501.6 24.59 2.5 2.5 5.3 6.81 6.4 10.22 8-1.7 16.1-3.39 24.3-5.08-81.1-18.15-252-59.18-252-59.18 39.9 4.3 335.9 40.88 346.2 40.06 76.7-15.21 156-29.98 236.1-43.59-27.3-3.69-52.5-8.38-80.2-11.76 15.7 0.84 47.8-37.72-20.3-36.5-54.2 0.98-275.1-23.29-255.8-23.29 360.3 0 317.7 14.65 603.8 82.23 29.3 6.91 203.2 64.45 162.9-31.09-16.8-39.9-162.6-41.27-206.1-48.4-64.5-14.76-134.2-31.41-135.9-33.99-7.8-11.71 324 43.36 360.2 45.13 25.1-2.3 50-4.35 74.6-6.11-20.1-16.49-264.4-96.88-268.3-106.3-2.8-6.46 91.6 19.23 188.3 46.16-39.9-22.78-673.5-386.95-520.3-312.25 186.1 90.75 356.2 164.6 546.1 246.82 60.3 26.13 99 53.08 171.1 84.3 42.4 18.36 36.9 33.62 80.7 33.57l0.8 20.51c43.8 39.19 81 127.54 4.9 135.27l19.8 536.92-96.1 693.76c-25.4 183.8-831.5-123.54-1119-172.18-74.9-8.73-168.5-26.8-243.4-34.48 74.5 5.98 166.7 12.28 241.6 20.43 96.4 14.64 816.5 171.66 833.9 132.46-94.7-81.4-373.4-174.86-470.3-211.78 109.4 25.79 309.8 74.21 453 96.7" fill="#f0b066" fill-rule="evenodd"/>
   </g>
  </g>
 </g>
</svg>
